<svg width="101" height="102" viewBox="0 0 101 102" fill="none" xmlns="http://www.w3.org/2000/svg">
<path d="M6.61582 65.7035L7.79183 67.1539L7.20382 65.2682C7.05674 64.3979 6.02781 65.4133 6.61582 65.7035ZM7.93892 64.8332C8.37984 65.5584 8.82109 66.2836 8.82109 67.0088C8.82109 68.0243 9.70326 68.4593 10.438 68.7492C9.40878 67.5889 8.82077 64.3979 7.93892 64.8332ZM64.3929 3.33616C66.892 3.33616 69.2443 3.04596 71.8909 3.62606C78.3596 5.22159 83.7991 8.41234 87.4745 12.9087L97.7658 29.1533C98.2067 33.2144 99.0889 37.7107 98.9418 42.6421C99.9711 42.6421 99.824 41.1917 101 40.9015C99.824 43.8023 99.2357 47.4284 98.9418 51.6346C98.2067 49.3138 98.9418 45.8329 99.0889 43.9474C98.0596 45.543 97.4716 44.3825 97.4716 43.6572C97.6187 42.497 97.0307 42.6418 96.5895 42.2068C94.9722 40.7564 93.9433 39.1609 92.7672 36.6953C93.5023 34.8099 93.6494 32.0541 91.2971 30.6037C90.562 30.1687 89.6798 29.4435 89.2389 28.283C88.6509 26.6875 87.6216 24.802 87.9155 22.3365C88.0625 21.6113 85.7102 23.932 84.3871 22.9166C78.6534 19.0006 72.9198 14.5043 66.0101 10.7331C62.3347 10.7331 59.6885 9.42776 58.3654 7.83223C57.1894 6.38181 58.0712 4.49638 59.8356 4.35128C60.8648 4.35128 62.0408 4.06107 62.923 4.64149C63.0701 4.06138 63.6581 3.33616 64.3929 3.33616ZM49.8385 0L50.1326 0.145105C51.6028 0.435314 52.3379 2.46585 53.9548 1.74063C53.9548 2.75606 54.1019 3.77117 53.8078 4.49638C53.3668 5.6566 52.0434 5.6566 51.0145 5.6566C41.1644 5.07649 35.4308 9.13755 29.4033 12.6185C27.786 13.6339 26.022 14.3591 24.6986 15.6645C18.3769 21.4662 11.4673 26.8326 9.85003 37.5656L8.52693 49.4589C8.37984 50.7643 6.90966 52.0696 7.20382 53.6651L8.23276 60.7721C7.20351 59.7567 6.6155 61.0623 6.90966 61.6425C7.05674 62.0775 7.64475 63.5279 8.52693 62.2226C9.70294 64.3982 10.8793 68.6044 12.4962 70.4898C17.4948 76.2915 23.9635 81.5128 29.2562 86.7344C30.5793 86.4442 31.6086 86.4442 31.9024 85.5738C32.3434 86.4442 31.4615 87.3145 30.7264 87.4596C33.0788 88.91 35.725 90.2153 39.2533 90.5052C43.811 90.7954 48.0744 91.5206 52.0437 92.5361C54.1019 91.956 56.1601 91.6658 58.3654 91.5207C59.1005 91.5207 59.5414 90.3604 60.4236 90.0702L60.5706 88.6198C61.4528 89.9251 61.3057 88.1848 60.7177 87.3145C61.747 88.1848 62.0408 88.91 62.4818 89.4901C62.4818 89.0551 63.6578 87.4596 63.6581 89.345L63.9519 87.4596C64.3929 87.1694 64.5399 89.0551 64.9812 87.7495C65.4221 86.4442 66.3043 87.4593 67.1865 87.0243C66.8923 87.6044 67.0394 88.7649 68.0683 88.0397L69.2447 87.0243C69.9797 88.7649 71.1558 88.0397 71.7438 87.7495C78.2125 83.6884 84.6812 78.9021 90.8558 74.1159L90.7087 76.0013L91.4438 73.6805C92.1789 74.4058 92.7669 73.8257 93.0611 73.3906C93.9433 71.9402 95.1193 70.4898 97.0307 69.1845C94.6783 75.4212 91.8851 80.3526 88.3567 84.4136L86.8865 86.1543C86.8865 87.1697 86.5924 88.475 85.4163 88.6198C84.8283 88.7649 83.652 88.3296 82.7701 89.1999C82.3292 89.78 83.7994 90.9405 82.6231 90.0702C81.5938 89.345 80.5649 90.0702 79.3885 90.3604C78.5064 90.6506 79.9765 91.5206 80.2707 92.1008C80.5649 92.6809 80.8587 93.261 80.7119 93.9865L79.0947 92.2459C77.1836 93.2613 76.0072 95.1467 74.39 96.5971C73.6549 97.1772 73.949 98.1927 73.949 99.0627C72.9198 99.0627 71.7438 98.7725 71.1558 99.3529C70.7148 99.933 70.8616 100.803 70.8616 101.674C69.3914 101.529 69.2443 99.3529 67.9216 99.7879C66.5985 100.078 65.1283 100.223 63.9519 100.948C64.8341 102.689 62.4818 101.674 62.7759 101.964C60.5706 100.658 58.6595 99.6428 56.3072 100.513C51.3086 98.9176 45.1341 99.6428 40.5764 100.223C40.5764 99.498 40.7235 98.7728 40.4294 98.6277C40.1352 99.3529 39.2533 99.0627 39.4004 99.0627C36.6071 97.1772 33.8139 96.0167 30.8735 94.4215C28.2273 94.7117 25.7279 93.4061 24.9928 92.6809C22.9346 90.7954 20.5822 91.8105 18.6711 91.3755C14.5547 90.3601 13.0845 86.154 12.6433 83.2534C12.3491 81.803 11.1731 81.2229 10.7322 81.3677C8.82109 75.2761 5.88072 69.7646 3.52837 64.108C2.94036 62.6576 3.08744 61.2071 3.08744 59.6116C3.82253 59.9018 4.55763 59.7567 4.41054 58.7416C3.67545 53.9553 1.91143 50.3293 0 46.8483C1.02925 41.9169 1.17602 36.1152 3.52837 31.7639C5.58656 27.848 9.4091 25.8171 12.0553 22.4813C12.9375 21.3211 12.9375 19.7255 13.8196 18.7104C16.76 15.8096 19.7004 12.7636 22.9346 10.153C24.4048 8.99276 26.1688 10.153 28.3741 9.71797C29.1091 7.10733 32.0495 4.78659 34.8428 5.5118C36.0188 5.80201 38.3712 2.75606 39.1063 2.46585C40.2823 2.03084 39.6943 3.62606 39.6943 4.64149C42.4875 2.46585 46.3101 1.30563 49.8385 0Z" fill="#30352F"/>
<path fill-rule="evenodd" clip-rule="evenodd" d="M48.1537 65.7191C53.303 65.9808 52.6947 65.7949 57.6405 65.6205L63.7963 65.2127C63.8937 66.0453 64.095 66.362 64.0279 67.3823C61.8288 67.4487 59.8028 67.4999 57.6449 67.5605C55.5605 67.6174 53.632 67.5245 51.5541 67.5643C47.2381 67.6497 42.985 67.3899 38.7578 67.4373L38.7188 65.0648C39.7837 65.0743 40.7491 65.2772 41.8789 65.4118C42.7772 65.52 44.0023 65.5105 44.9178 65.592C45.9178 65.6811 47.1884 65.6698 48.1537 65.7191ZM66.4326 56.2481C68.4325 56.2444 70.3979 56.1002 72.5255 56.14C74.7787 56.1799 74.9844 56.4871 78.5384 56.415C78.2029 57.8051 75.2571 59.8002 73.9411 60.5493C72.0515 61.6265 68.1338 63.0261 65.5798 63.2025C64.53 63.2745 65.201 63.5211 63.9434 63.7354C61.9175 64.0786 52.9653 64.6533 51.2835 64.5205C48.4264 64.2967 45.3204 64.4257 42.5023 64.1412L38.721 63.5021C37.0414 63.2233 36.5479 63.2518 35.1431 62.6449C33.5458 61.9546 30.4224 60.9002 29.0502 60.0335L26.3468 58.4424C25.9225 58.2186 23.8122 57.4069 23.5092 56.9498C23.8273 56.8019 32.6843 56.4511 33.838 56.4378C40.84 56.3657 48.3507 56.6862 55.3765 56.4093L66.4326 56.2481ZM31.0718 47.075C28.9052 46.7184 26.4442 45.9807 25.7753 44.3839C24.6823 41.7706 27.1454 40.9627 29.7298 41.0461C30.0047 41.4633 29.9571 42.0569 30.0328 42.6543C30.1627 43.6727 30.851 45.9048 31.0718 47.075ZM37.5219 34.5185C37.9807 34.5147 38.721 34.5583 39.366 34.5431L61.8353 35.1291C63.0344 35.2922 64.4066 35.4402 65.7248 35.425L73.242 35.9029C73.9 35.975 73.348 35.9067 73.6143 36.0129C74.4476 38.0781 73.8285 42.2636 73.1078 44.5261L70.9823 49.0075C70.4996 49.7736 70.2117 50.3369 69.7399 51.0215L68.2377 52.9445C67.8027 53.4888 67.0494 54.1014 66.6404 54.6324C65.4239 54.6532 64.333 54.7253 63.0322 54.7386C62.4218 54.7443 61.8006 54.7234 61.1881 54.7272C60.3331 54.731 60.1621 54.8277 59.5929 54.9092C58.5929 55.0572 57.0453 54.9149 55.9479 55.0003C52.4263 55.2734 44.0997 55.1198 40.0651 55.0913C39.4461 54.291 38.7578 53.8245 38.0002 53.1797C36.8682 52.2163 36.7318 51.837 36.0695 51.2699C35.076 50.4203 35.2752 50.2477 34.299 49.218C33.7709 48.6604 33.2168 47.5889 32.812 46.9062C31.8012 45.1975 31.5393 43.026 31.0934 41.2263C30.9094 40.4772 30.8921 38.5257 30.9376 37.7007C31.0004 36.5155 31.4138 35.7095 31.838 34.839L37.5219 34.5185ZM33.9072 51.6625C29.9354 50.7806 25.5134 51.9887 23.0005 46.3164C22.3447 44.8352 21.6542 41.6075 23.191 40.2932C24.3078 39.3412 28.3597 38.5883 29.6043 38.5523L29.6389 39.3696C28.771 39.6048 27.5415 39.6238 26.7515 40.0637C23.4659 41.8957 24.4637 45.7569 25.3576 46.6274C26.6108 47.8449 28.4658 48.2546 30.1324 48.632C31.3618 48.9088 31.9159 48.6661 32.5631 49.6352C33.0501 50.3672 33.8141 51.2358 33.9072 51.6625ZM66.6036 64.5338C67.1317 64.4029 67.4196 64.3252 67.9131 64.1905C70.5083 63.4756 72.8156 62.844 74.9822 61.4577C76.5817 60.4317 78.9172 58.3494 80.0492 56.965C80.4258 56.5042 81.7331 55.0913 80.4453 54.9984C80.0882 54.9718 80.5535 54.9946 80.1856 55.0003C79.4345 55.0135 79.4973 55.0818 78.5103 54.968C75.3047 54.5982 72.0126 54.621 68.7897 54.6343C68.9477 54.09 70.8827 51.782 71.7507 50.316C74.4887 45.6905 75.6294 41.7099 75.1532 36.3391C75.1056 35.7796 74.9476 35.4041 74.8826 34.8447C74.8134 34.2397 74.7225 34.143 74.3632 33.7523L66.162 33.7428C64.6101 33.612 62.727 33.7599 61.082 33.6063C59.5106 33.4584 57.489 33.739 56.041 33.4034C55.2791 33.2251 52.3528 33.3863 51.1277 33.3768C47.697 33.3465 38.7902 32.7548 35.9288 33.117L31.1475 33.4128C30.7601 33.7542 30.7255 33.813 30.3012 34.0937C30.6497 35.0362 30.0934 35.2486 29.8813 36.0774C29.535 37.4239 30.0004 36.9384 28.3272 37.2323C26.7926 37.5016 25.2039 37.8544 23.9464 38.3702C22.6823 38.8898 21.8577 39.9518 21.4356 41.1049C20.5568 43.5172 21.3923 47.477 22.862 49.1895C23.2191 49.6067 23.7018 50.1681 24.1109 50.5739C25.0113 51.4634 26.3251 52.0209 27.6368 52.4135C29.2731 52.9047 32.206 52.7833 34.0436 53.0223C34.5717 53.0905 34.7687 52.9597 35.3076 52.9578L37.3141 55.0003C34.7276 55.0572 32.2211 55.1861 29.7341 55.2392C27.2039 55.2961 24.8468 55.5465 22.2732 55.5123L22.0049 55.1634C21.1975 56.1894 20.7148 55.994 21.1845 57.2533C21.4096 57.8545 21.5785 57.7274 22.0936 58.046C22.4637 58.2755 22.5654 58.4879 22.9897 58.7496C23.4767 59.0511 23.7494 59.0113 24.2451 59.2673C24.6152 59.4589 26.3468 60.6897 27.429 61.1941L29.2342 62.1025C31.0804 63.0659 31.8488 63.193 33.5436 63.7657C34.7968 64.1886 34.299 64.4883 37.6799 64.7689C37.5392 65.9372 37.1799 67.7729 37.8357 68.7155C38.6279 69.036 61.6773 69.0398 64.8352 68.9488C65.714 67.991 65.3309 66.5763 65.4023 65.0193C65.7464 64.7614 66.1793 64.64 66.6036 64.5338Z" fill="#B85954"/>
</svg>
