<svg width="101" height="102" viewBox="0 0 101 102" fill="none" xmlns="http://www.w3.org/2000/svg">
<path d="M6.61582 65.7035L7.79183 67.1539L7.20382 65.2682C7.05674 64.3979 6.02781 65.4133 6.61582 65.7035ZM7.93892 64.8332C8.37984 65.5584 8.82109 66.2836 8.82109 67.0088C8.82109 68.0243 9.70326 68.4593 10.438 68.7492C9.40878 67.589 8.82077 64.3979 7.93892 64.8332ZM64.3929 3.33617C66.892 3.33617 69.2443 3.04596 71.8909 3.62606C78.3596 5.22159 83.7991 8.41234 87.4745 12.9087L97.7658 29.1533C98.2067 33.2144 99.0889 37.7107 98.9418 42.6421C99.9711 42.6421 99.824 41.1917 101 40.9015C99.824 43.8023 99.2357 47.4284 98.9418 51.6346C98.2067 49.3138 98.9418 45.8329 99.0889 43.9475C98.0596 45.543 97.4716 44.3825 97.4716 43.6572C97.6187 42.497 97.0307 42.6418 96.5895 42.2068C94.9722 40.7564 93.9433 39.1609 92.7672 36.6953C93.5023 34.8099 93.6494 32.0541 91.2971 30.6037C90.562 30.1687 89.6798 29.4435 89.2389 28.283C88.6509 26.6875 87.6216 24.802 87.9155 22.3365C88.0625 21.6113 85.7102 23.932 84.3871 22.9166C78.6534 19.0006 72.9198 14.5043 66.0101 10.7331C62.3347 10.7331 59.6885 9.42776 58.3654 7.83223C57.1894 6.38181 58.0712 4.49638 59.8356 4.35128C60.8648 4.35128 62.0408 4.06107 62.923 4.64149C63.0701 4.06138 63.6581 3.33617 64.3929 3.33617ZM49.8385 0L50.1326 0.145105C51.6028 0.435314 52.3379 2.46585 53.9548 1.74063C53.9548 2.75606 54.1019 3.77117 53.8078 4.49638C53.3668 5.6566 52.0434 5.6566 51.0145 5.6566C41.1644 5.07649 35.4308 9.13756 29.4033 12.6185C27.786 13.6339 26.022 14.3591 24.6986 15.6645C18.3769 21.4662 11.4673 26.8326 9.85003 37.5656L8.52693 49.4589C8.37984 50.7643 6.90966 52.0696 7.20382 53.6651L8.23276 60.7721C7.20351 59.7567 6.6155 61.0623 6.90966 61.6425C7.05674 62.0775 7.64475 63.5279 8.52693 62.2226C9.70294 64.3982 10.8793 68.6044 12.4962 70.4898C17.4948 76.2915 23.9635 81.5128 29.2562 86.7344C30.5793 86.4442 31.6086 86.4442 31.9024 85.5738C32.3434 86.4442 31.4615 87.3145 30.7264 87.4596C33.0788 88.91 35.725 90.2153 39.2533 90.5052C43.811 90.7954 48.0744 91.5206 52.0437 92.5361C54.1019 91.956 56.1601 91.6658 58.3654 91.5207C59.1005 91.5207 59.5414 90.3604 60.4236 90.0702L60.5706 88.6198C61.4528 89.9251 61.3057 88.1848 60.7177 87.3145C61.747 88.1848 62.0408 88.91 62.4818 89.4901C62.4818 89.0551 63.6578 87.4596 63.6581 89.345L63.9519 87.4596C64.3929 87.1694 64.5399 89.0551 64.9812 87.7495C65.4221 86.4442 66.3043 87.4593 67.1865 87.0243C66.8923 87.6044 67.0394 88.7649 68.0683 88.0397L69.2447 87.0243C69.9798 88.7649 71.1558 88.0397 71.7438 87.7495C78.2125 83.6884 84.6812 78.9021 90.8558 74.1159L90.7087 76.0013L91.4438 73.6805C92.1789 74.4058 92.7669 73.8257 93.0611 73.3906C93.9433 71.9402 95.1193 70.4898 97.0307 69.1845C94.6784 75.4212 91.8851 80.3526 88.3567 84.4136L86.8865 86.1543C86.8865 87.1697 86.5924 88.475 85.4163 88.6198C84.8283 88.7649 83.652 88.3296 82.7701 89.1999C82.3292 89.78 83.7994 90.9405 82.6231 90.0702C81.5938 89.345 80.5649 90.0702 79.3885 90.3604C78.5064 90.6507 79.9765 91.5206 80.2707 92.1008C80.5649 92.6809 80.8587 93.261 80.7119 93.9865L79.0947 92.2459C77.1836 93.2613 76.0072 95.1467 74.39 96.5971C73.6549 97.1772 73.949 98.1927 73.949 99.0627C72.9198 99.0627 71.7438 98.7725 71.1558 99.3529C70.7148 99.933 70.8616 100.803 70.8616 101.674C69.3914 101.529 69.2443 99.3529 67.9216 99.7879C66.5985 100.078 65.1283 100.223 63.9519 100.948C64.8341 102.689 62.4818 101.674 62.7759 101.964C60.5706 100.658 58.6595 99.6428 56.3072 100.513C51.3086 98.9176 45.1341 99.6428 40.5764 100.223C40.5764 99.498 40.7235 98.7728 40.4294 98.6277C40.1352 99.3529 39.2533 99.0627 39.4004 99.0627C36.6071 97.1772 33.8139 96.0167 30.8735 94.4215C28.2273 94.7117 25.7279 93.4061 24.9928 92.6809C22.9346 90.7954 20.5822 91.8106 18.6711 91.3755C14.5547 90.3601 13.0846 86.154 12.6433 83.2534C12.3491 81.803 11.1731 81.2229 10.7322 81.3677C8.82109 75.2761 5.88072 69.7646 3.52837 64.108C2.94036 62.6576 3.08744 61.2071 3.08744 59.6116C3.82253 59.9018 4.55763 59.7567 4.41054 58.7416C3.67545 53.9553 1.91143 50.3293 0 46.8483C1.02925 41.9169 1.17602 36.1152 3.52837 31.7639C5.58656 27.848 9.4091 25.8171 12.0553 22.4813C12.9375 21.3211 12.9375 19.7255 13.8196 18.7104C16.76 15.8096 19.7004 12.7636 22.9346 10.153C24.4048 8.99276 26.1688 10.153 28.3741 9.71797C29.1091 7.10733 32.0495 4.78659 34.8428 5.5118C36.0188 5.80201 38.3712 2.75606 39.1063 2.46585C40.2823 2.03084 39.6943 3.62606 39.6943 4.64149C42.4875 2.46585 46.3101 1.30563 49.8385 0Z" fill="#30352F"/>
<path fill-rule="evenodd" clip-rule="evenodd" d="M65.9042 63.7363C64.6869 64.2879 65.4337 63.9439 64.4137 64.5712C63.9013 64.8864 63.4371 65.1379 62.8921 65.3773C60.0788 66.6107 58.3663 66.8441 55.4583 67.3577C53.4353 67.7153 47.9267 67.8608 45.9176 67.4729C44.5871 67.2153 43.0469 66.9122 41.8111 66.5319C41.4772 66.4289 41.277 66.294 40.9431 66.1834C40.5581 66.0561 40.2988 65.994 39.934 65.8834C38.4295 65.4288 35.6597 64.4606 34.3555 63.8772C34.354 61.7756 35.7466 58.4906 36.6797 56.7526C37.6191 55.001 38.2137 54.4389 38.9434 53.3055L39.1359 53.5555C39.3114 53.7358 39.1282 53.5934 39.3595 53.7343C39.5163 53.8313 39.7601 53.9283 39.9743 53.9995C40.555 54.1919 40.6295 54.248 41.1854 54.6253C41.6977 54.9738 43.1789 55.3435 43.9288 55.4965C46.1071 55.942 51.7942 56.1875 54.2551 55.8314C56.7547 55.4708 59.4112 55.2374 61.7758 54.254L62.8549 53.5025C63.7135 54.0707 64.9167 56.5738 65.2598 57.9436C65.4446 58.68 66.1122 62.3756 65.8591 63.1969C65.7287 63.6181 65.766 63.1787 65.9042 63.7363ZM40.9758 50.8372C41.6698 50.9493 43.2177 51.6827 44.2766 51.8979C44.7051 51.9857 45.1398 52.0176 45.5761 52.1145L48.1115 52.5191C51.5194 52.7934 52.909 52.8403 56.4815 52.2388C60.6176 51.5418 60.1503 50.863 60.821 50.619C61.1424 50.9736 62.2354 52.4585 62.3969 52.9282C62.2478 53.0706 62.445 52.9585 62.1236 53.1191C62.1112 53.1237 61.8193 53.2267 61.8193 53.2267C60.1596 53.754 59.0541 54.1434 57.1367 54.4101C53.2412 54.951 48.2822 55.1268 44.5327 54.4389C44.0312 54.3465 42.3979 53.8434 42.0113 53.6358C41.1729 53.1873 40.5302 52.8979 39.6592 52.5494C39.7275 52.0418 40.6451 51.2069 40.9758 50.8372ZM42.2551 44.8566C42.238 46.3279 41.5362 48.0507 40.6808 49.0477L39.3378 50.6129C39.0164 50.9326 39.0086 51.0251 38.74 51.413C38.5273 51.7221 38.3131 51.9706 38.1081 52.2782C37.8504 52.6646 37.7557 52.7206 37.4514 53.0373C37.2107 53.2873 37.0896 53.5616 36.9188 53.8949C36.023 55.6344 35.9873 55.2177 34.8849 57.6618C34.5806 58.3361 34.3819 59.1543 34.1211 59.8028C32.8681 59.5816 31.1758 58.1557 30.4678 57.2511L27.906 53.5934C27.3642 52.5858 26.4544 50.2796 26.2883 48.9916C26.088 47.4355 25.9001 44.802 26.1501 43.2156C26.2914 42.314 26.7959 41.8807 27.254 41.3049C27.816 40.6003 28.1048 40.3594 29.1512 40.0579C30.5579 39.6518 30.0378 39.6397 31.8512 39.6063C34.3229 39.5624 35.0945 39.8079 36.9561 40.7943C37.3567 41.0064 37.5337 41.1761 37.8535 41.411C38.6438 41.9898 39.9759 42.7641 40.5876 43.4111C41.013 43.8611 41.7008 44.6308 42.2551 44.8566ZM64.9804 54.7889C65.2645 54.5919 65.4927 54.4162 65.7753 54.1889C66.0874 53.9358 66.3047 53.8752 66.6789 53.6722C68.3386 52.7706 68.3883 52.9509 69.7251 52.3797C70.0139 52.2554 70.3197 52.0873 70.683 51.9236C71.405 51.5978 71.9375 51.2524 72.6051 50.9281C74.9138 49.8068 75.6482 48.5598 76.4136 46.143C76.6481 45.4036 76.6978 44.3429 76.9182 43.7429C77.4756 43.8853 77.1542 43.8838 77.6216 44.1626L78.3187 44.446C78.9677 44.5323 79.6027 44.305 80.0762 44.1535C80.0312 46.0142 76.5767 53.4919 75.4153 55.4571C73.9807 57.883 72.4763 59.2846 70.4067 61.0922C69.9952 61.4529 69.4332 62.0165 69.0031 62.3044C68.8013 62.4408 67.463 63.2424 67.1944 63.2348C66.8916 63.2272 66.9475 63.5151 66.8699 62.259L66.6711 59.8907C66.5811 59.0361 66.1417 57.3936 65.8281 56.6648C65.603 56.1405 65.0999 55.2041 64.9804 54.7889ZM43.5391 41.317C44.5747 40.8261 45.9239 41.0549 47.0215 41.3943C48.335 41.7973 53.0844 42.4459 54.505 42.2655C55.5623 42.1307 56.5343 41.367 57.7686 41.3079C58.0279 44.1429 57.8648 43.6399 58.6691 46.1097L59.9236 49.0568C60.144 49.4992 60.2993 49.5841 60.4639 50.1069C58.6008 51.0205 53.8095 51.6403 51.0629 51.5645C49.8612 51.5312 47.2622 51.2857 46.1536 50.9857C44.8696 50.6387 45.1274 50.9751 42.9227 50.1675C42.5082 50.0159 42.1418 49.9538 41.8747 49.7523C43.0376 47.3779 43.0159 47.1052 43.227 44.6869C43.2658 44.2384 43.0935 44.005 43.1665 43.5338C43.3124 42.5777 43.182 42.2171 43.5391 41.317ZM77.2893 42.555C77.5579 42.4216 79.775 42.1322 80.6336 42.8065C80.2454 43.4414 78.5578 43.6959 77.783 43.2262C77.7458 43.202 77.4508 42.9989 77.4197 42.9716C77.1154 42.6913 77.3266 42.6701 77.2893 42.555ZM33.705 61.0407L33.4488 62.8878C32.4101 62.6423 28.7724 60.7059 28.2181 59.9376C27.9728 59.5982 28.0303 59.6634 27.7539 59.4088L24.3599 55.6738C23.5526 54.645 22.3105 51.4857 22.2531 49.7523C22.1475 46.5567 21.4488 46.3567 22.5729 42.5898C23.0169 41.1049 24.731 38.976 26.0228 38.0123C27.3689 37.0077 30.5128 36.4062 32.6849 36.8244C34.3633 37.1471 35.8305 37.3835 37.2573 38.3214C38.5133 39.1472 39.3378 39.4048 40.8143 40.8079C41.3437 41.3125 41.9213 41.7579 42.2473 42.3943C42.3979 42.6868 42.4135 43.008 42.2194 43.3308C41.9058 43.1474 41.6651 42.7838 41.4074 42.511L36.4344 39.1321C34.5527 38.2229 30.2008 38.2684 28.1094 39.4624C26.9202 40.1397 25.6268 41.9625 25.2899 43.3429C24.8459 45.1581 25.2247 47.5204 25.3287 49.3598C25.3908 50.4751 25.616 51.1872 25.9482 52.0463L26.8829 54.5162C27.1887 55.1874 27.8098 55.9102 28.2305 56.4647C28.7817 57.189 29.0099 57.3375 29.6713 58.3421C30.0207 58.8724 30.7799 59.4922 31.4196 59.8907C31.8853 60.1801 31.831 60.3437 32.4582 60.5619C32.9318 60.7256 33.2221 60.9286 33.705 61.0407ZM43.5189 40.0321C43.2488 39.7048 43.2099 39.7548 43.0019 39.2654C42.7255 38.6154 41.9166 37.1168 43.213 36.538C43.9754 36.1986 44.7625 36.3804 45.4534 36.5653C47.1131 37.0062 50.9869 37.3032 52.6233 36.9759C54.4227 36.6153 55.376 36.094 57.0994 37.0153C57.4736 37.2153 58.2965 37.9214 58.1955 38.5245C58.003 39.6821 54.4817 41.1397 52.8934 41.1594C51.2337 41.1791 49.7308 40.7761 48.1192 40.6276C45.6599 40.4003 46.5076 39.8669 43.5189 40.0321ZM52.7211 35.891C50.8533 35.9349 49.0865 35.9395 47.4609 35.6092C47.464 34.7409 47.6612 34.6167 48.2962 34.35C48.8334 34.1257 49.5678 34.0576 50.2401 34.1576C51.3098 34.3167 52.5364 34.9546 52.7211 35.891ZM53.5859 35.7061C53.8545 34.5621 53.2769 34.2167 52.6217 33.753C51.3936 32.8833 48.0478 32.2241 46.8337 34.997L46.5899 35.4682C45.0047 35 43.2922 35.2076 42.3746 36.2122C41.558 37.1062 41.3717 38.3896 41.8033 39.4578C41.9182 39.7382 41.8995 39.6654 42.047 39.9033C42.2349 40.2064 42.1619 40.0488 42.2722 40.3927C41.8576 40.2548 42.1029 40.3852 41.8142 40.1185C41.0938 39.4518 40.4774 38.8805 39.6343 38.2957L36.7294 36.6713C33.9875 35.6561 31.744 35.4001 28.937 35.9137C26.4916 36.3607 24.953 37.7956 23.4455 39.5639C22.1102 41.1322 21.0467 44.1126 21.0017 46.1779C20.9722 47.5401 21.337 50.972 21.7128 52.3251C21.8587 52.8494 22.0109 53.5297 22.1987 54.0298C22.3912 54.5419 22.6692 55.0662 22.9284 55.5995C23.6923 57.1739 25.2868 58.8043 26.546 59.9892C27.372 60.7665 28.0349 61.9741 29.7272 62.5272C30.1371 62.6605 31.3155 63.2681 32.1679 63.5212C33.41 63.8909 32.6337 64.5758 33.7609 65.2425C34.4968 65.6773 36.2031 66.1834 37.0725 66.4637C37.7386 66.6774 38.1361 66.8183 38.8596 67.0138C39.1701 67.0971 39.4402 67.1804 39.8082 67.282C41.1621 67.6532 39.934 67.1759 41.5735 67.8411C41.8592 67.9577 42.1418 67.9987 42.4383 68.0744C45.9891 68.979 44.5529 68.7654 48.408 68.8351C49.7355 68.8593 51.257 69.0745 52.791 68.9729C54.0579 68.8896 55.5732 68.5153 56.7842 68.3275C57.9968 68.1381 59.346 67.8259 60.4437 67.432C61.6516 66.9971 62.7307 66.6607 63.7445 66.0925C64.1808 65.8485 64.7801 65.4334 65.2117 65.2364C65.6837 65.0212 65.7039 65.2197 66.8994 64.6955C69.0171 63.7651 68.2656 64.1106 69.7903 62.9651C72.1968 61.1559 74.7959 58.4406 76.2413 55.7844C76.7894 54.7768 77.2024 53.7025 77.7504 52.6873C78.2923 51.6797 80.7997 45.8066 80.8975 44.5854C80.9286 44.2081 80.8711 43.8868 80.9208 43.5126C80.9612 43.1929 80.9969 42.9535 81 42.511C80.4318 42.0413 80.7485 42.1034 79.7874 41.864C79.199 41.717 78.7829 41.7004 78.0966 41.7307C77.3281 41.767 77.1434 41.9337 76.7257 42.264C75.6932 43.0807 76.0783 46.7597 74.0366 48.6628C72.9622 49.6629 68.2594 51.6039 66.5749 52.4024C65.4306 52.9464 65.2334 53.5873 64.3221 53.8646C64.069 53.4525 62.3751 51.5569 61.8022 50.4751C61.5507 50.0038 61.4094 49.6902 61.1237 49.2568C60.4809 48.278 60.2496 47.3688 59.8755 46.6006C59.0262 44.852 58.9998 43.699 58.8399 41.8337C58.6458 39.573 58.1707 41.1352 59.2761 39.029C59.7745 38.0835 59.0619 36.941 58.3353 36.3092C56.8122 34.9803 54.6215 35.697 53.5859 35.7061Z" fill="#B85954"/>
</svg>
