<svg width="101" height="102" viewBox="0 0 101 102" fill="none" xmlns="http://www.w3.org/2000/svg">
<path d="M6.61582 65.7035L7.79183 67.1539L7.20382 65.2682C7.05674 64.3979 6.02781 65.4133 6.61582 65.7035ZM7.93892 64.8332C8.37984 65.5584 8.82109 66.2836 8.82109 67.0088C8.82109 68.0243 9.70326 68.4593 10.438 68.7492C9.40878 67.5889 8.82077 64.3979 7.93892 64.8332ZM64.3929 3.33616C66.892 3.33616 69.2443 3.04596 71.8909 3.62606C78.3596 5.22159 83.7991 8.41234 87.4745 12.9087L97.7658 29.1533C98.2067 33.2144 99.0889 37.7107 98.9418 42.6421C99.9711 42.6421 99.824 41.1917 101 40.9015C99.824 43.8023 99.2357 47.4284 98.9418 51.6346C98.2067 49.3138 98.9418 45.8329 99.0889 43.9474C98.0596 45.543 97.4716 44.3825 97.4716 43.6572C97.6187 42.497 97.0307 42.6418 96.5895 42.2068C94.9722 40.7564 93.9433 39.1609 92.7672 36.6953C93.5023 34.8099 93.6494 32.0541 91.2971 30.6037C90.562 30.1687 89.6798 29.4435 89.2389 28.283C88.6509 26.6875 87.6216 24.802 87.9155 22.3365C88.0625 21.6113 85.7102 23.932 84.3871 22.9166C78.6534 19.0006 72.9198 14.5043 66.0101 10.7331C62.3347 10.7331 59.6885 9.42776 58.3654 7.83223C57.1894 6.38181 58.0712 4.49638 59.8356 4.35128C60.8648 4.35128 62.0408 4.06107 62.923 4.64149C63.0701 4.06138 63.6581 3.33616 64.3929 3.33616ZM49.8385 0L50.1326 0.145105C51.6028 0.435314 52.3379 2.46585 53.9548 1.74063C53.9548 2.75606 54.1019 3.77117 53.8078 4.49638C53.3668 5.6566 52.0434 5.6566 51.0145 5.6566C41.1644 5.07649 35.4308 9.13755 29.4033 12.6185C27.786 13.6339 26.022 14.3591 24.6986 15.6645C18.3769 21.4662 11.4673 26.8326 9.85003 37.5656L8.52693 49.4589C8.37984 50.7643 6.90966 52.0696 7.20382 53.6651L8.23276 60.7721C7.20351 59.7567 6.6155 61.0623 6.90966 61.6425C7.05674 62.0775 7.64475 63.5279 8.52693 62.2226C9.70294 64.3982 10.8793 68.6044 12.4962 70.4898C17.4948 76.2915 23.9635 81.5128 29.2562 86.7344C30.5793 86.4442 31.6086 86.4442 31.9024 85.5738C32.3434 86.4442 31.4615 87.3145 30.7264 87.4596C33.0788 88.91 35.725 90.2153 39.2533 90.5052C43.811 90.7954 48.0744 91.5206 52.0437 92.5361C54.1019 91.956 56.1601 91.6658 58.3654 91.5207C59.1005 91.5207 59.5414 90.3604 60.4236 90.0702L60.5706 88.6198C61.4528 89.9251 61.3057 88.1848 60.7177 87.3145C61.747 88.1848 62.0408 88.91 62.4818 89.4901C62.4818 89.0551 63.6578 87.4596 63.6581 89.345L63.9519 87.4596C64.3929 87.1694 64.5399 89.0551 64.9812 87.7495C65.4221 86.4442 66.3043 87.4593 67.1865 87.0243C66.8923 87.6044 67.0394 88.7649 68.0683 88.0397L69.2447 87.0243C69.9797 88.7649 71.1558 88.0397 71.7438 87.7495C78.2125 83.6884 84.6812 78.9021 90.8558 74.1159L90.7087 76.0013L91.4438 73.6805C92.1789 74.4058 92.7669 73.8257 93.0611 73.3906C93.9433 71.9402 95.1193 70.4898 97.0307 69.1845C94.6783 75.4212 91.8851 80.3526 88.3567 84.4136L86.8865 86.1543C86.8865 87.1697 86.5924 88.475 85.4163 88.6198C84.8283 88.7649 83.652 88.3296 82.7701 89.1999C82.3292 89.78 83.7994 90.9405 82.6231 90.0702C81.5938 89.345 80.5649 90.0702 79.3885 90.3604C78.5064 90.6506 79.9765 91.5206 80.2707 92.1008C80.5649 92.6809 80.8587 93.261 80.7119 93.9865L79.0947 92.2459C77.1836 93.2613 76.0072 95.1467 74.39 96.5971C73.6549 97.1772 73.949 98.1927 73.949 99.0627C72.9198 99.0627 71.7438 98.7725 71.1558 99.3529C70.7148 99.933 70.8616 100.803 70.8616 101.674C69.3914 101.529 69.2443 99.3529 67.9216 99.7879C66.5985 100.078 65.1283 100.223 63.9519 100.948C64.8341 102.689 62.4818 101.674 62.7759 101.964C60.5706 100.658 58.6595 99.6428 56.3072 100.513C51.3086 98.9176 45.1341 99.6428 40.5764 100.223C40.5764 99.498 40.7235 98.7728 40.4294 98.6277C40.1352 99.3529 39.2533 99.0627 39.4004 99.0627C36.6071 97.1772 33.8139 96.0167 30.8735 94.4215C28.2273 94.7117 25.7279 93.4061 24.9928 92.6809C22.9346 90.7954 20.5822 91.8105 18.6711 91.3755C14.5547 90.3601 13.0845 86.154 12.6433 83.2534C12.3491 81.803 11.1731 81.2229 10.7322 81.3677C8.82109 75.2761 5.88072 69.7646 3.52837 64.108C2.94036 62.6576 3.08744 61.2071 3.08744 59.6116C3.82253 59.9018 4.55763 59.7567 4.41054 58.7416C3.67545 53.9553 1.91143 50.3293 0 46.8483C1.02925 41.9169 1.17602 36.1152 3.52837 31.7639C5.58656 27.848 9.4091 25.8171 12.0553 22.4813C12.9375 21.3211 12.9375 19.7255 13.8196 18.7104C16.76 15.8096 19.7004 12.7636 22.9346 10.153C24.4048 8.99276 26.1688 10.153 28.3741 9.71797C29.1091 7.10733 32.0495 4.78659 34.8428 5.5118C36.0188 5.80201 38.3712 2.75606 39.1063 2.46585C40.2823 2.03084 39.6943 3.62606 39.6943 4.64149C42.4875 2.46585 46.3101 1.30563 49.8385 0Z" fill="#30352F"/>
<path fill-rule="evenodd" clip-rule="evenodd" d="M38.9429 67.8083C39.8143 67.8914 40.6736 68.1032 41.6159 68.232C42.5076 68.3542 43.4945 68.408 44.4754 68.4911C46.5182 68.6654 48.3907 68.6997 50.5409 68.7241C56.1463 68.7925 57.1231 68.6214 62.4144 67.9957L61.1559 65.9148C60.6513 65.9832 60.3271 66.1413 59.8062 66.2244C57.5041 66.5959 50.2065 66.4509 47.9651 66.2668C45.817 66.0908 43.8573 65.8936 41.9159 65.4862C39.0807 64.8915 40.6797 64.9746 39.8326 66.1788L38.9429 67.8083ZM56.9751 52.8835C54.9749 53.123 52.5613 52.9242 50.4091 52.9894C49.8457 53.7406 49.8153 58.4679 49.8843 59.0985C49.9977 60.1381 50.2652 64.5476 49.9815 65.3216L53.1936 65.4455C54.2616 64.3505 55.1006 61.2332 55.6011 59.6379C55.9761 58.4467 56.0125 57.5798 56.2375 56.2908C56.4158 55.274 56.9204 53.871 56.9751 52.8835ZM49.258 52.9861C46.9924 52.903 44.8848 52.7466 42.6819 52.7955C42.611 54.3419 43.0669 55.3115 43.2048 56.7618C43.4723 59.5792 44.1957 61.5183 44.8989 64.1761C45.1806 65.2418 44.6882 65.0756 46.4351 65.1734C47.1565 65.2141 48.4474 65.2923 49.0534 65.2679C49.3492 62.9637 47.8496 56.9752 49.258 52.9861ZM41.4498 52.7629C40.6168 52.758 39.5711 52.8102 38.7646 52.7417C38.0391 52.6814 37.3501 52.5038 36.4584 52.4891C36.5941 53.7211 38.1303 57.1561 38.6754 58.6243L40.6128 63.0224C40.931 63.6921 40.9593 63.4656 41.083 64.1516L41.1275 64.3358C41.6524 64.5916 43.0629 64.7872 43.8431 64.8246C43.7256 64.0017 43.2554 62.7258 42.9757 61.8996L42.3273 58.9909C42.078 57.4918 41.3383 54.0812 41.4498 52.7629ZM63.8107 52.3881C62.3577 52.3229 61.8855 52.7499 59.8306 52.7678C59.5043 52.7694 58.57 52.7319 58.3431 52.921C57.9722 53.2322 57.2913 58.1892 56.8475 59.4994C56.5232 60.4608 56.3125 61.5574 55.8747 62.5531L54.4744 65.4308C56.0895 65.4455 58.2012 65.3852 59.5894 65.1017C61.2552 62.0984 62.5704 57.5781 63.4844 54.1398C63.6445 53.5337 63.6688 52.9177 63.8107 52.3881ZM70.5044 51.2703C69.9288 51.3012 65.2516 52.1665 65.134 52.274L63.9688 56.6998C63.4378 58.6683 62.6191 60.9822 61.8287 62.8545C61.5774 63.4461 61.0607 64.3162 60.9837 64.8931C62.4448 64.4287 65.6893 60.1821 66.6012 58.784C67.0005 58.1746 67.3572 57.7411 67.7381 57.1414C68.0746 56.6118 68.4738 55.8069 68.7474 55.2756C69.5499 53.7194 69.9957 52.2789 70.5044 51.2703ZM35.4694 52.3409C34.5635 52.217 32.8531 51.8715 31.9756 51.6222C31.3332 51.4397 29.3067 50.7015 28.9237 50.6804C29.3877 52.626 32.0425 56.6118 33.4611 58.2202C34.598 59.5124 37.5223 62.6655 38.9409 63.5292L39.3503 63.7426C39.3725 63.7557 39.405 63.7752 39.4273 63.7883C39.715 63.9691 39.4374 63.9545 39.9136 64.1011C39.8772 63.785 38.7524 61.8263 38.5295 61.3065L36.128 55.4565C35.6863 54.4087 35.2789 53.5402 35.4694 52.3409ZM75.1776 51.298C76.5334 50.8726 77.7331 50.7358 78.4586 49.8656C79.0848 49.1144 79.5306 47.7814 79.2976 46.5365C79.0463 45.1954 77.0623 44.9656 77.042 46.6261C77.0238 48.1774 77.0501 49.921 74.0184 49.7141C73.299 49.6652 73.2443 49.5267 72.8228 49.2822L72.5208 49.1274C72.308 50.185 71.6372 51.3387 71.3535 52.4044L75.1776 51.298ZM72.6444 58.828C72.5107 56.5206 67.9104 55.6129 77.2427 53.3821C81.8409 52.2822 85.0307 48.7885 83.1055 45.3127C82.763 44.6951 82.1165 44.2731 81.4599 43.9521C79.9603 43.2204 78.8781 42.435 76.43 42.6696C73.3395 42.9646 74.4643 43.9504 73.2848 47.0009C72.9038 47.9835 73.1004 47.744 73.2889 47.9558C74.1522 48.9335 75.4694 48.7331 75.664 48.5864C76.1098 48.254 75.2607 47.6983 75.9761 46.1633C76.2071 45.6647 77.042 44.9787 77.8689 44.819C78.6106 44.6772 79.2287 44.6055 79.8184 44.9575C80.2987 45.2443 80.5581 45.5734 80.4547 46.2399C80.244 47.5973 80.8074 48.8488 78.8679 50.7358C77.4818 52.0834 73.6212 52.5674 72.2553 53.0953C70.3929 53.8139 70.5348 54.3142 70.0484 55.1746C69.6998 55.7906 68.717 57.2311 68.5933 57.7232C68.8527 57.8568 69.1203 58.0312 69.3655 58.1631C69.6107 58.2951 69.9957 58.432 70.2632 58.5298C71.1164 58.8443 71.4548 58.8704 72.6444 58.828ZM28.3887 49.2888L29.0534 49.6212C29.3371 49.732 29.487 49.7874 29.7627 49.8966C30.2004 50.0726 30.7435 50.1654 31.2137 50.3365C34.3751 51.4788 38.0492 51.6483 41.6524 51.6646C44.3741 51.676 46.6803 51.9253 49.3472 51.9595C52.3161 51.9986 58.0816 52.0003 60.9391 51.5994C62.1631 51.4283 63.2696 51.3599 64.4673 51.21L70.2247 50.1165C70.5834 50.0742 70.5287 50.2306 70.857 50.0595C71.2076 49.877 71.2623 49.1323 71.3819 48.738C71.5237 48.267 71.696 47.9639 71.846 47.5289C72.1479 46.6457 72.3384 45.7657 72.6079 44.933C73.4773 42.2606 73.0031 41.5681 73.3882 39.1091C71.9189 39.1384 67.0714 40.618 65.057 40.9733C64.4977 41.0711 64.0802 41.0727 63.5675 41.19C63.0751 41.3008 62.69 41.3807 62.2117 41.4719L49.8761 42.7804C48.723 42.813 47.8233 42.976 46.5607 42.9597C45.6792 42.9483 44.1998 43.0069 43.2392 43.0786C40.0595 43.3198 33.6293 43.0917 30.6442 42.2345C30.0139 42.0537 28.7392 41.6463 28.2427 41.3904L25.9386 40.3834L26.8546 45.1693L28.3887 49.2888ZM72.7579 37.825C72.152 37.2237 68.3664 36.4758 67.6226 36.2949C59.5286 34.3118 44.7692 34.6458 37.1048 36.5508C36.2415 36.7642 35.1837 36.8522 34.3386 37.1097L30.5631 38.2324C29.2195 38.5925 28.7595 38.7848 27.3754 39.0537C27.3713 39.0553 27.0552 39.1336 27.0511 39.1336C26.8343 39.2004 26.8627 39.1922 26.737 39.2655C28.6379 41.5094 34.4784 41.7196 37.2568 41.8858C39.5671 42.026 41.5166 41.8826 43.7702 41.8353C48.1029 41.7424 49.1121 41.7522 53.2666 41.2731C54.3386 41.1493 55.3681 41.1639 56.4543 41.0303C61.0647 40.4616 63.2027 40.0982 67.6368 39.1547L72.7579 37.825ZM37.4473 68.2564C37.4757 67.8197 38.0877 66.7768 38.3046 66.3368C38.7889 65.3559 39.2185 65.1897 38.4586 64.5574C37.877 64.0751 37.3622 63.7182 36.8211 63.2065L35.3073 61.8671C34.8148 61.3146 34.3933 60.8486 33.8543 60.3663C33.374 59.9377 32.9687 59.3494 32.539 58.8687C29.3128 55.2675 27.2741 50.1019 25.9527 45.826C25.5049 44.3823 24.8848 40.341 25.0185 39.0081C25.3083 38.8191 25.9021 38.56 26.3418 38.3709C28.1718 37.592 30.7536 37.0445 32.385 36.5084C34.0123 35.9739 35.1898 35.824 37.117 35.4296C43.8877 34.0462 52.5654 33.6567 59.7758 34.3053C64.4004 34.7224 65.9507 35.076 70.0545 35.9723C70.9948 36.1776 71.9858 36.6013 73.0132 36.8897C73.6476 37.0673 74.2636 37.2612 74.4622 37.8544C74.6872 38.5241 74.5291 41.5778 74.5048 42.2932C75.1087 42.184 74.8696 42.1449 75.3944 41.9021C77.8871 40.7517 80.0798 41.7049 82.0213 42.7658C84.1106 43.9081 85.3103 45.725 84.595 48.6435C84.4268 49.3311 83.3993 50.9851 82.9109 51.4267C81.0222 53.1328 79.4739 53.7732 76.734 54.5586C75.3559 54.953 74.1927 55.0752 73.0599 55.6472C73.072 56.7161 73.7367 56.9948 73.9738 57.8633C74.5919 60.1349 71.2137 60.35 70.0342 59.8595L67.7321 58.8443C67.4301 59.4977 66.8586 60.0925 66.4128 60.6694C65.9345 61.2886 65.5272 61.7269 65.0712 62.3755C64.7571 62.822 63.9931 63.6253 63.5553 64.0262L62.2746 65.1343C62.0273 65.3575 62.0942 65.2695 61.922 65.5107C62.1773 65.8675 62.5117 66.2309 62.8157 66.6285C63.073 66.9642 63.5675 67.5182 63.6769 67.7562C64.2869 69.0973 62.6008 69.1429 61.3991 69.3172C58.9774 69.6692 55.82 69.8713 53.1956 69.8811C50.5267 69.8925 42.9372 69.7181 40.6716 69.1738C39.8934 68.9865 39.6178 68.9734 38.9936 68.7176C38.4525 68.496 37.9783 68.4862 37.4473 68.2564Z" fill="#A8342F"/>
<path fill-rule="evenodd" clip-rule="evenodd" d="M59.5306 43.5561C61.0039 43.5789 61.8085 43.3589 62.0375 43.8249C61.5065 44.0694 60.4263 43.9064 59.6846 43.9488L59.9967 44.775C60.6898 44.7733 61.4072 44.8027 62.08 44.713C62.9737 44.5925 62.8035 44.7733 62.3495 45.1579L60.4243 45.1905C60.5662 45.8651 61.4639 46.6978 61.3201 47.1736C60.7465 47.0726 61.2309 47.4148 60.5155 46.2953C60.2946 45.9498 60.0514 45.5734 59.8447 45.2296C59.3361 45.1872 58.872 45.197 58.3633 45.2052C57.6966 45.2149 57.5588 45.3176 57.4858 44.832L59.4556 44.8304L59.0746 43.9472L55.1087 43.8934C54.7358 43.8526 54.0751 43.7288 54.5271 43.4241C54.8412 43.3296 55.7937 43.5577 56.3773 43.5642C57.115 43.5724 57.9013 43.5903 58.6349 43.5724C58.8679 43.3214 58.7869 43.2367 59.0321 43.0444C59.409 43.1438 59.3888 43.2742 59.5306 43.5561Z" fill="#A8342F"/>
<path fill-rule="evenodd" clip-rule="evenodd" d="M37.5892 45.2801L32.0344 44.5256C31.2481 44.3888 30.2632 44.1052 29.558 43.8592C28.5407 43.5056 27.6632 43.284 28.0259 42.7185C29.027 42.9874 28.8102 43.737 35.2506 44.6381C36.8049 44.8548 37.65 44.6397 37.5892 45.2801Z" fill="#A8342F"/>
<path fill-rule="evenodd" clip-rule="evenodd" d="M38.0168 46.8396C37.727 46.9651 34.6264 46.3507 33.9961 46.2611C32.762 46.0851 31.9818 46.0591 30.7658 45.7641C30.1984 45.6272 30.1356 45.7071 30.1335 45.2573L37.2609 46.4436C37.8061 46.5479 37.8912 46.4713 38.0168 46.8396Z" fill="#A8342F"/>
<path fill-rule="evenodd" clip-rule="evenodd" d="M36.7928 47.9069C36.7056 47.9395 34.2981 47.8548 34.1542 47.3187C34.6831 47.2975 35.0297 47.4393 35.5505 47.4849C36.2132 47.5435 36.6833 47.4621 36.7928 47.9069Z" fill="#A8342F"/>
<path fill-rule="evenodd" clip-rule="evenodd" d="M40.2662 54.0225C40.2115 54.6385 39.8407 54.3305 39.3543 54.2344C38.5761 54.0779 38.2802 54.4006 38.2356 53.7928C38.9084 53.7732 39.7839 53.8596 40.2662 54.0225Z" fill="#A8342F"/>
<path fill-rule="evenodd" clip-rule="evenodd" d="M53.836 61.2544L53.8076 61.6162C53.4469 61.6015 53.147 61.4467 52.7802 61.3587C51.9959 61.1713 51.8662 61.4288 51.8783 60.8177L53.836 61.2544Z" fill="#A8342F"/>
<path fill-rule="evenodd" clip-rule="evenodd" d="M67.8638 54.3745C67.6368 54.381 65.6832 54.3061 66.2162 53.9052C66.4452 53.7341 67.0268 53.8612 67.2497 53.9101C67.6814 54.0079 67.8334 53.9899 67.8638 54.3745Z" fill="#A8342F"/>
<path fill-rule="evenodd" clip-rule="evenodd" d="M53.4469 62.3087C52.9545 62.5743 51.8095 62.1848 51.6473 61.8948C52.0871 61.6992 53.1754 62.0268 53.4469 62.3087Z" fill="#A8342F"/>
<path fill-rule="evenodd" clip-rule="evenodd" d="M39.946 55.1616C39.7961 55.2284 40.2561 55.4109 39.0158 55.1322C38.4504 55.0068 38.3633 55.1078 38.2356 54.7346C38.7179 54.5521 39.5509 54.8829 39.946 55.1616Z" fill="#A8342F"/>
<path fill-rule="evenodd" clip-rule="evenodd" d="M68.2204 53.4538C67.9975 53.5679 68.49 53.5907 67.8131 53.5516L66.3337 53.1344C66.6519 52.991 67.499 53.079 67.8597 53.1817C68.4231 53.3446 68.0097 53.1165 68.2204 53.4538Z" fill="#A8342F"/>
<path fill-rule="evenodd" clip-rule="evenodd" d="M67.6408 55.375C67.2538 55.5086 66.4452 55.3962 66.2162 55.1615C66.6134 54.9464 67.4017 55.0426 67.6408 55.375Z" fill="#A8342F"/>
<path fill-rule="evenodd" clip-rule="evenodd" d="M54.521 50.0286C54.2474 49.9357 54.2819 50.1964 54.2393 49.82C54.1967 49.4452 54.29 49.6147 54.5392 49.512C54.7257 49.8412 54.6426 49.8884 54.521 50.0286Z" fill="#A8342F"/>
<path fill-rule="evenodd" clip-rule="evenodd" d="M53.147 49.1323C52.766 48.9905 52.9565 49.0916 52.7721 48.8667L53.2261 48.6956L53.147 49.1323Z" fill="#A8342F"/>
<path fill-rule="evenodd" clip-rule="evenodd" d="M52.5228 50.2534C52.4033 50.3936 52.5694 50.3251 52.3465 50.4066C51.9534 50.5484 52.2452 50.4082 52.1216 50.361C52.2128 50.1654 51.9128 49.9927 52.5228 50.2534Z" fill="#A8342F"/>
</svg>
