<svg width="101" height="102" viewBox="0 0 101 102" fill="none" xmlns="http://www.w3.org/2000/svg">
<path d="M6.61582 65.7035L7.79183 67.1539L7.20382 65.2682C7.05674 64.3979 6.02781 65.4133 6.61582 65.7035ZM7.93892 64.8332C8.37984 65.5584 8.82109 66.2836 8.82109 67.0088C8.82109 68.0243 9.70326 68.4593 10.438 68.7492C9.40878 67.5889 8.82077 64.3979 7.93892 64.8332ZM64.3929 3.33616C66.892 3.33616 69.2443 3.04596 71.8909 3.62606C78.3596 5.22159 83.7991 8.41234 87.4745 12.9087L97.7658 29.1533C98.2067 33.2144 99.0889 37.7107 98.9418 42.6421C99.9711 42.6421 99.824 41.1917 101 40.9015C99.824 43.8023 99.2357 47.4284 98.9418 51.6346C98.2067 49.3138 98.9418 45.8329 99.0889 43.9474C98.0596 45.543 97.4716 44.3825 97.4716 43.6572C97.6187 42.497 97.0307 42.6418 96.5895 42.2068C94.9722 40.7564 93.9433 39.1609 92.7672 36.6953C93.5023 34.8099 93.6494 32.0541 91.2971 30.6037C90.562 30.1687 89.6798 29.4435 89.2389 28.283C88.6509 26.6875 87.6216 24.802 87.9155 22.3365C88.0625 21.6113 85.7102 23.932 84.3871 22.9166C78.6534 19.0006 72.9198 14.5043 66.0101 10.7331C62.3347 10.7331 59.6885 9.42776 58.3654 7.83223C57.1894 6.38181 58.0712 4.49638 59.8356 4.35128C60.8648 4.35128 62.0408 4.06107 62.923 4.64149C63.0701 4.06138 63.6581 3.33616 64.3929 3.33616ZM49.8385 0L50.1326 0.145105C51.6028 0.435314 52.3379 2.46585 53.9548 1.74063C53.9548 2.75606 54.1019 3.77117 53.8078 4.49638C53.3668 5.6566 52.0434 5.6566 51.0145 5.6566C41.1644 5.07649 35.4308 9.13755 29.4033 12.6185C27.786 13.6339 26.022 14.3591 24.6986 15.6645C18.3769 21.4662 11.4673 26.8326 9.85003 37.5656L8.52693 49.4589C8.37984 50.7643 6.90966 52.0696 7.20382 53.6651L8.23276 60.7721C7.20351 59.7567 6.6155 61.0623 6.90966 61.6425C7.05674 62.0775 7.64475 63.5279 8.52693 62.2226C9.70294 64.3982 10.8793 68.6044 12.4962 70.4898C17.4948 76.2915 23.9635 81.5128 29.2562 86.7344C30.5793 86.4442 31.6086 86.4442 31.9024 85.5738C32.3434 86.4442 31.4615 87.3145 30.7264 87.4596C33.0788 88.91 35.725 90.2153 39.2533 90.5052C43.811 90.7954 48.0744 91.5206 52.0437 92.5361C54.1019 91.956 56.1601 91.6658 58.3654 91.5207C59.1005 91.5207 59.5414 90.3604 60.4236 90.0702L60.5706 88.6198C61.4528 89.9251 61.3057 88.1848 60.7177 87.3145C61.747 88.1848 62.0408 88.91 62.4818 89.4901C62.4818 89.0551 63.6578 87.4596 63.6581 89.345L63.9519 87.4596C64.3929 87.1694 64.5399 89.0551 64.9812 87.7495C65.4221 86.4442 66.3043 87.4593 67.1865 87.0243C66.8923 87.6044 67.0394 88.7649 68.0683 88.0397L69.2447 87.0243C69.9797 88.7649 71.1558 88.0397 71.7438 87.7495C78.2125 83.6884 84.6812 78.9021 90.8558 74.1159L90.7087 76.0013L91.4438 73.6805C92.1789 74.4058 92.7669 73.8257 93.0611 73.3906C93.9433 71.9402 95.1193 70.4898 97.0307 69.1845C94.6783 75.4212 91.8851 80.3526 88.3567 84.4136L86.8865 86.1543C86.8865 87.1697 86.5924 88.475 85.4163 88.6198C84.8283 88.7649 83.652 88.3296 82.7701 89.1999C82.3292 89.78 83.7994 90.9405 82.6231 90.0702C81.5938 89.345 80.5649 90.0702 79.3885 90.3604C78.5064 90.6506 79.9765 91.5206 80.2707 92.1008C80.5649 92.6809 80.8587 93.261 80.7119 93.9865L79.0947 92.2459C77.1836 93.2613 76.0072 95.1467 74.39 96.5971C73.6549 97.1772 73.949 98.1927 73.949 99.0627C72.9198 99.0627 71.7438 98.7725 71.1558 99.3529C70.7148 99.933 70.8616 100.803 70.8616 101.674C69.3914 101.529 69.2443 99.3529 67.9216 99.7879C66.5985 100.078 65.1283 100.223 63.9519 100.948C64.8341 102.689 62.4818 101.674 62.7759 101.964C60.5706 100.658 58.6595 99.6428 56.3072 100.513C51.3086 98.9176 45.1341 99.6428 40.5764 100.223C40.5764 99.498 40.7235 98.7728 40.4294 98.6277C40.1352 99.3529 39.2533 99.0627 39.4004 99.0627C36.6071 97.1772 33.8139 96.0167 30.8735 94.4215C28.2273 94.7117 25.7279 93.4061 24.9928 92.6809C22.9346 90.7954 20.5822 91.8105 18.6711 91.3755C14.5547 90.3601 13.0845 86.154 12.6433 83.2534C12.3491 81.803 11.1731 81.2229 10.7322 81.3677C8.82109 75.2761 5.88072 69.7646 3.52837 64.108C2.94036 62.6576 3.08744 61.2071 3.08744 59.6116C3.82253 59.9018 4.55763 59.7567 4.41054 58.7416C3.67545 53.9553 1.91143 50.3293 0 46.8483C1.02925 41.9169 1.17602 36.1152 3.52837 31.7639C5.58656 27.848 9.4091 25.8171 12.0553 22.4813C12.9375 21.3211 12.9375 19.7255 13.8196 18.7104C16.76 15.8096 19.7004 12.7636 22.9346 10.153C24.4048 8.99276 26.1688 10.153 28.3741 9.71797C29.1091 7.10733 32.0495 4.78659 34.8428 5.5118C36.0188 5.80201 38.3712 2.75606 39.1063 2.46585C40.2823 2.03084 39.6943 3.62606 39.6943 4.64149C42.4875 2.46585 46.3101 1.30563 49.8385 0Z" fill="#30352F"/>
<path fill-rule="evenodd" clip-rule="evenodd" d="M38.6937 73.4189C38.8147 72.4778 39.0217 71.7215 39.0329 70.5815C40.0344 70.6117 40.8369 70.4827 41.8416 70.4604C42.7954 70.4382 43.7985 70.5114 44.7603 70.4827C46.7108 70.4238 48.6486 70.5018 50.5991 70.4573C53.3951 70.3952 56.2819 70.6818 59.1496 70.4748C60.0842 70.4063 60.9982 70.2598 61.866 70.2598C61.858 70.8362 61.7721 71.2391 61.7736 71.825C61.7816 74.2755 62.0857 73.0017 58.3407 73.5383C57.8121 73.6131 57.3519 73.6227 56.7453 73.6322C56.1768 73.6402 55.8217 73.7628 55.2931 73.8026C52.6818 74.0032 47.9989 73.6131 45.3876 73.5065C43.1441 73.4157 40.9993 73.4396 38.6937 73.4189ZM32.0349 52.8516C32.0317 50.952 32.5953 41.478 34.2211 40.1246C35.0379 39.4431 35.9168 39.2361 36.9709 39.1087C38.1237 38.9702 39.2622 38.9606 40.4866 38.9558L46.0118 39.0609C46.6009 39.0546 47.0563 39.1501 47.6789 39.1517C48.1072 39.1533 48.3508 39.2695 48.819 39.2456L54.419 39.0148C55.4906 39.1485 58.457 38.9574 59.6687 38.9558C60.6033 38.9558 61.5555 39.0609 62.5873 39.0737C64.8419 39.0991 64.8945 39.0514 66.4406 39.8204C68.2542 40.7217 68.7318 42.5321 68.7971 45.0383C68.8433 46.8471 68.9834 49.0556 68.9564 50.874C68.9245 52.8388 68.7812 64.3111 68.4978 65.526C68.2255 66.6915 68.0265 66.7377 67.3036 67.373C65.3117 69.1277 63.7226 68.8554 61.4934 69.185C58.9585 69.5592 53.7359 69.2057 51.2233 69.2503C47.7681 69.3108 42.3798 69.4892 39.3386 69.4302C37.8021 69.4 35.4758 69.2854 34.3452 68.3778C33.3373 67.5689 32.6909 65.9018 32.3342 64.3302C32.1766 63.6408 31.9775 62.4943 31.9346 61.7157L31.8024 58.7955C31.7833 56.2542 32.0396 54.9725 32.0349 52.8516ZM30.9489 61.5644C29.4076 61.2842 27.8201 59.926 27.196 58.5264C26.6657 57.3418 26.1419 54.5043 26.1419 52.9566C26.1419 51.9058 26.1721 50.7243 26.3361 49.7705C26.524 48.6766 26.6992 48.1655 27.2453 47.4379C28.1593 46.2214 29.6751 45.8934 30.3916 45.5669C30.8725 45.3488 30.8566 45.2071 31.5413 45.1338L31.1305 49.0954C31.0652 50.4345 31.097 51.9169 30.976 53.2512C30.7197 56.0775 30.933 58.7286 30.9489 61.5644ZM31.8247 65.7712C31.3932 65.7457 31.3709 65.5786 30.8232 65.4448C28.3408 64.8382 26.9396 64.2347 25.1467 62.0405C23.8713 60.4785 23.0784 56.4453 23.0752 53.791C23.072 52.3213 22.908 50.011 23.1341 48.6368C23.357 47.2802 23.6739 45.5415 24.5082 44.7947C26.0909 43.3776 28.9777 43.1961 30.2611 42.7216C30.8072 42.5193 31.6065 42.1006 32.1622 42.0894L31.8247 43.8823C30.9171 43.8632 31.054 43.7756 30.1592 44.0973C28.7898 44.5893 27.4762 45.1498 26.4763 46.344C25.1515 47.9235 25.0607 50.8756 25.0974 52.9614C25.1308 54.9454 25.8043 58.028 26.6228 59.4244C27.8217 61.4673 30.4713 62.2857 31.1894 62.7682C31.2897 64.0707 31.5795 64.7283 31.8247 65.7712ZM69.9579 49.4807C72.1202 49.14 72.5469 46.2596 73.3017 44.9061C74.7872 42.2407 74.8684 42.2837 77.1772 41.0608C77.4368 40.9239 77.6708 40.7503 77.9192 40.6548C78.1788 40.5545 78.5147 40.5147 78.7663 40.4446C78.9876 40.7344 79.2504 41.0369 79.3602 41.4891C78.123 42.7996 77.2871 43.3903 76.4671 45.4587C76.077 46.4427 76.0897 47.1528 75.8764 48.3088C75.362 51.0905 75.0277 54.5585 74.015 56.6571C73.1711 58.4054 71.9403 59.3178 69.7859 59.383L69.9579 49.4807ZM36.2241 37.9384C36.1843 37.1996 36.0729 36.3477 36.2018 35.7633C36.3865 34.9242 36.7719 34.8637 37.6699 34.7905L42.1267 34.8366C43.117 34.9513 49.5594 34.7284 51.2233 34.7093C52.0274 34.6981 52.8203 34.7475 53.6244 34.7252C54.0766 34.7125 54.3951 34.6265 54.7597 34.6265L60.3931 34.6058C61.7657 34.4864 63.1796 34.6965 64.4073 35.0819C66.3291 35.6869 65.9868 37.034 65.8084 37.9368C65.111 37.9463 64.9104 37.7744 64.0171 37.94C63.3882 38.0562 62.7927 37.9639 62.2465 37.9161L54.6642 37.8428C53.3728 37.8604 52.2949 37.9877 51.0147 37.9702L39.7558 37.7728C38.6269 37.7696 37.2671 37.9973 36.2241 37.9384ZM53.6228 30.6474C53.5337 31.3034 52.9573 32.2221 52.5958 32.539C51.8857 33.1632 51.6516 33.1871 50.3905 33.1966C49.4336 33.2046 48.4798 33.2858 47.991 32.7301C47.3318 31.9817 47.2745 32.125 47.0993 30.7764C46.7251 27.8737 50.8284 27.0791 53.6228 30.6474ZM59.4601 74.637C60.2721 74.637 61.3995 74.7007 62.0332 74.2914C62.3055 74.1147 62.4201 74.1211 62.6462 73.9857C62.7465 73.3472 62.7147 72.618 62.772 72.0241C62.9296 70.3792 62.6478 70.7025 62.4886 70.2614C63.0682 69.9239 64.4662 69.8602 65.1986 69.814C65.7097 69.7821 67.0361 69.244 67.5504 68.8602L68.6459 68.0848C69.8114 66.9606 69.6777 63.0437 69.7413 60.9435C71.6409 60.8607 73.3972 59.8862 74.3557 58.2669C75.1678 56.8975 75.4671 55.7383 75.8095 54.1986C75.9257 53.6764 75.9814 53.2719 76.0818 52.6891C76.8301 48.3056 76.3922 45.594 79.2408 43.1308C79.8682 42.5878 80.0003 42.8967 80.4939 42.6212C81.0305 41.9923 78.8603 39.1788 78.6405 39.1214C77.7218 39.2218 76.1725 40.0258 75.491 40.4319C74.0771 41.271 73.101 42.634 72.4386 44.1419C71.9928 45.1577 71.2715 47.113 70.5789 47.9171L69.942 48.4346C69.9706 46.1863 69.9611 43.9858 69.3274 42.1499C68.294 39.1644 68.915 39.8762 66.3657 38.2568L66.8275 36.3525C66.9198 35.6344 66.4852 35.0261 66.146 34.6981C65.7034 34.2714 65.2352 34.0994 64.5076 33.9402C63.7274 33.7698 63.6907 33.5612 62.694 33.4705C58.8805 33.1186 56.3536 33.6186 53.5321 33.5453C53.5528 33.1648 53.8075 32.9307 53.9588 32.547C54.0798 32.2349 54.2231 31.8034 54.2438 31.3798C54.333 29.5471 53.8235 28.5345 52.3283 27.6762C48.7935 25.6461 45.6917 28.579 46.206 31.2986L46.757 33.566C45.8223 33.5931 44.8622 33.6058 43.9259 33.6074C42.3496 33.609 38.4931 33.1775 37.1524 33.6727C36.6875 33.8447 36.4454 33.7587 35.8993 33.8049C34.5793 34.8048 34.9837 36.2458 34.9758 38.1533C34.9551 38.1693 34.9232 38.1868 34.9073 38.1963C34.893 38.2059 34.858 38.2282 34.8404 38.2393L34.5873 38.4097C33.9201 38.8874 33.2036 39.6596 32.8406 40.4C32.4027 41.2949 32.3294 40.5593 31.3406 40.9C31.0206 41.0115 30.5525 41.1277 30.2356 41.2614C29.0557 41.7646 28.016 41.7328 25.7613 42.6212C24.8028 42.9986 24.5655 43.0543 23.8952 43.6626C21.6405 45.7102 22.0147 50.8389 22.0354 53.3706C22.0641 56.7574 22.9382 60.703 24.5783 62.6106C25.0512 63.1599 25.5034 63.6439 25.9938 64.1121C27.0941 65.1614 30.2356 66.6183 32.1957 66.6613C32.5858 67.7472 33.3724 68.7105 34.28 69.3761C35.8563 70.5305 36.2655 70.142 37.3944 70.4175L37.7989 70.5735C37.8307 72.1084 36.7098 74.0319 38.1348 74.3488C39.5679 74.6688 39.0408 74.4921 40.6952 74.5096C43.3097 74.5382 45.7252 74.6019 48.2075 74.7994L53.9238 75C55.5893 74.8981 57.7516 74.6338 59.4601 74.637Z" fill="#B85954"/>
<path fill-rule="evenodd" clip-rule="evenodd" d="M58.5239 41.2806C60.6288 41.2981 62.4631 40.6118 64.8388 41.1118C65.5458 41.2599 66.0426 41.6946 66.5298 41.6866C66.5123 40.9876 65.9725 41.0577 65.0888 40.7695C63.8245 40.3555 61.8628 40.6182 60.5031 40.7711C59.3853 40.8968 58.6274 40.615 58.5239 41.2806Z" fill="#B85954"/>
<path fill-rule="evenodd" clip-rule="evenodd" d="M58.769 67.5115C60.0142 67.6373 61.6463 67.3523 62.7959 67.2186C63.4997 67.1374 64.084 67.0339 64.7767 67.0004C65.7925 66.9511 66.1142 66.8937 66.1014 66.3317C65.7734 66.3826 65.662 66.4782 65.2957 66.5275L62.6669 66.8953C61.3915 67.0975 60.1973 67.1055 58.9633 67.0721C58.7961 67.3061 58.7961 67.1915 58.769 67.5115Z" fill="#B85954"/>
<path fill-rule="evenodd" clip-rule="evenodd" d="M33.2386 53.3738C33.2976 52.7974 33.1877 52.307 33.2705 51.7083C33.4759 50.2307 33.5093 50.3103 33.8198 48.9075C34.0045 48.0732 34.1638 47.9872 33.71 47.8598C33.4966 48.2228 32.8645 51.4758 32.8103 52.2242C32.761 52.9025 32.7084 53.2353 33.0189 53.6222L33.2386 53.3738Z" fill="#B85954"/>
<path fill-rule="evenodd" clip-rule="evenodd" d="M47.7569 71.513C47.4974 71.4031 44.8255 71.3346 44.6679 71.3983C44.8749 71.8871 44.6154 71.6706 45.3812 71.7391C45.8557 71.7821 47.5244 72.1164 47.7569 71.513Z" fill="#B85954"/>
<path fill-rule="evenodd" clip-rule="evenodd" d="M61.046 42.3075C61.3931 42.4763 62.0921 42.3983 62.5873 42.3903C63.8022 42.3728 63.791 42.5368 63.9343 42.0942C63.5968 41.9286 62.8723 42.0098 62.3787 42.013C61.9313 42.0162 61.0842 41.8458 61.046 42.3075Z" fill="#B85954"/>
<path fill-rule="evenodd" clip-rule="evenodd" d="M61.5698 65.5626C61.8787 65.6996 62.6669 65.5101 63.1111 65.4623C63.7433 65.3954 64.4916 65.655 64.4009 65.0085C63.6398 65.0069 61.909 65.0865 61.5698 65.5626Z" fill="#B85954"/>
<path fill-rule="evenodd" clip-rule="evenodd" d="M71.0995 55.5982C71.4928 55.6587 71.7619 55.3021 72.1488 55.1062C72.5118 54.9215 73.0007 54.8101 72.7698 54.3578C72.3431 54.4502 71.0517 55.0362 71.0995 55.5982Z" fill="#B85954"/>
<path fill-rule="evenodd" clip-rule="evenodd" d="M34.6828 48.7499C34.2401 48.7388 34.3691 48.8884 34.3134 49.3629C34.2831 49.6129 34.1701 50.0556 34.3484 50.2434C34.8054 50.7211 34.7146 48.9951 34.6828 48.7499Z" fill="#B85954"/>
<path fill-rule="evenodd" clip-rule="evenodd" d="M71.3925 56.0838C71.547 56.5249 71.703 56.3115 72.082 56.0823C72.4195 55.88 72.7268 55.7877 72.7571 55.3992C72.4705 55.4039 71.5502 55.9167 71.3925 56.0838Z" fill="#B85954"/>
<path fill-rule="evenodd" clip-rule="evenodd" d="M46.2013 72.1371C45.9035 71.7836 44.5469 71.8012 44.3399 72.1371C44.5819 72.2852 44.2332 72.2343 44.7555 72.2374L46.2013 72.1371Z" fill="#B85954"/>
<path fill-rule="evenodd" clip-rule="evenodd" d="M61.8851 43.2614C62.2163 43.427 62.8404 43.3458 63.2719 43.3203C63.2258 42.9557 63.1239 42.9875 62.6971 43.0034C62.3866 43.0146 62.0077 43.0305 61.8851 43.2614Z" fill="#B85954"/>
<path fill-rule="evenodd" clip-rule="evenodd" d="M71.1713 57.4102C71.5789 57.3927 71.5964 57.3179 71.8416 57.1029C72.0661 56.9039 72.1617 56.8928 72.3686 56.7096C72.262 56.6428 72.4005 56.6316 72.1855 56.6364C71.875 56.6412 71.3305 57.1794 71.1713 57.4102Z" fill="#B85954"/>
<path fill-rule="evenodd" clip-rule="evenodd" d="M35.5872 48.9409C35.3388 49.1877 35.3404 49.5699 35.5315 49.8724C35.8706 49.6702 35.8372 49.1925 35.5872 48.9409Z" fill="#B85954"/>
<path fill-rule="evenodd" clip-rule="evenodd" d="M39.8593 72.2311C39.9245 72.5448 39.8561 72.5782 40.2127 72.497C40.4691 72.4381 40.5296 72.3728 40.6538 72.2725C40.4579 72.1658 40.1124 72.0766 39.8593 72.2311Z" fill="#B85954"/>
<path fill-rule="evenodd" clip-rule="evenodd" d="M66.1316 51.1351C65.9852 51.4631 66.181 51.7147 66.3546 51.9121L66.603 51.7529L66.1316 51.1351Z" fill="#B85954"/>
<path fill-rule="evenodd" clip-rule="evenodd" d="M42.5709 71.7788C42.8018 71.6021 42.8544 71.6769 42.676 71.3234C42.3018 71.4413 42.3257 71.5639 42.5709 71.7788Z" fill="#B85954"/>
<path fill-rule="evenodd" clip-rule="evenodd" d="M65.9979 45.672C66.2909 45.5637 66.1938 45.7771 66.318 45.3504L65.9374 45.215L65.9979 45.672Z" fill="#B85954"/>
<path fill-rule="evenodd" clip-rule="evenodd" d="M40.8783 71.6627C40.8194 71.4684 40.7685 71.5607 40.6952 71.5193C40.5822 71.7072 40.5503 71.5114 40.63 71.8075C40.7223 72.1467 40.579 71.8458 40.7987 71.9349C40.8943 71.8075 41.0567 72.2661 40.8783 71.6627Z" fill="#B85954"/>
<path fill-rule="evenodd" clip-rule="evenodd" d="M35.7274 46.2835L36.162 46.3328C36.0665 46.0128 36.0888 46.016 35.7433 46.0255L35.7274 46.2835Z" fill="#B85954"/>
<path fill-rule="evenodd" clip-rule="evenodd" d="M41.9452 72.5957C42.1824 72.3823 42.1936 72.2963 41.8417 72.1674C41.6363 72.4747 41.7684 72.454 41.9452 72.5957Z" fill="#B85954"/>
<path fill-rule="evenodd" clip-rule="evenodd" d="M37.318 45.2421C37.3992 45.5144 37.431 45.6083 37.7431 45.4507C37.6556 45.2294 37.6269 45.1052 37.318 45.2421Z" fill="#B85954"/>
<path fill-rule="evenodd" clip-rule="evenodd" d="M66.2352 47.9251L66.4374 47.6735C66.1826 47.4967 66.4469 47.5716 66.0361 47.5429C66.095 47.9649 65.9597 47.7388 66.2352 47.9251Z" fill="#B85954"/>
<path fill-rule="evenodd" clip-rule="evenodd" d="M64.7767 49.4139C65.2241 49.1527 65.0044 49.1782 64.8802 48.9808C64.8802 48.9824 64.5936 49.0683 64.7767 49.4139Z" fill="#B85954"/>
<path fill-rule="evenodd" clip-rule="evenodd" d="M64.6875 46.0016C64.6159 45.6227 64.7576 45.731 64.3595 45.6402C64.4503 46.1656 64.3213 45.9268 64.6875 46.0016Z" fill="#B85954"/>
<path fill-rule="evenodd" clip-rule="evenodd" d="M36.9311 47.0971C37.1636 47.0079 37.092 47.164 37.213 46.8328L36.8595 46.6831L36.9311 47.0971Z" fill="#B85954"/>
<path fill-rule="evenodd" clip-rule="evenodd" d="M66.2479 49.0986C66.3371 49.3072 66.2304 49.2483 66.388 49.2945C66.5186 49.3327 66.3642 49.3215 66.5106 49.2913L66.6205 49.2037C66.568 49.0938 66.8116 49.1496 66.5106 49.0508C66.0505 48.8996 66.3642 49.0301 66.2479 49.0986Z" fill="#B85954"/>
</svg>
