<svg width="50" height="51" viewBox="0 0 50 51" fill="none" xmlns="http://www.w3.org/2000/svg">
<ellipse cx="26.1719" cy="25" rx="23.8281" ry="22.6563" fill="#B85954"/>
<path d="M3.27516 32.7109L3.85734 33.433L3.56625 32.4941C3.49344 32.0608 2.98406 32.5664 3.27516 32.7109ZM3.93016 32.2776C4.14844 32.6386 4.36687 32.9997 4.36687 33.3607C4.36687 33.8662 4.80359 34.0828 5.16734 34.2271C4.65781 33.6495 4.36672 32.0608 3.93016 32.2776ZM31.8777 1.66093C33.1148 1.66093 34.2794 1.51645 35.5895 1.80526C38.7919 2.5996 41.4847 4.18813 43.3042 6.42668L48.3989 14.5141C48.6172 16.536 49.0539 18.7745 48.9811 21.2296C49.4906 21.2296 49.4178 20.5075 50 20.363C49.4178 21.8072 49.1266 23.6125 48.9811 25.7066C48.6172 24.5512 48.9811 22.8181 49.0539 21.8795C48.5444 22.6738 48.2533 22.096 48.2533 21.735C48.3261 21.1574 48.035 21.2295 47.8166 21.0129C47.0159 20.2908 46.5066 19.4964 45.9244 18.269C46.2883 17.3303 46.3611 15.9583 45.1966 15.2362C44.8327 15.0197 44.3959 14.6586 44.1777 14.0808C43.8866 13.2865 43.377 12.3478 43.5225 11.1203C43.5953 10.7593 42.4308 11.9147 41.7758 11.4092C38.9373 9.45957 36.0989 7.22102 32.6783 5.34352C30.8587 5.34352 29.5487 4.69366 28.8937 3.89932C28.3116 3.17722 28.7481 2.23855 29.6216 2.16631C30.1311 2.16631 30.7133 2.02182 31.15 2.31079C31.2228 2.02198 31.5139 1.66093 31.8777 1.66093ZM24.6725 0L24.8181 0.0722412C25.5459 0.216724 25.9098 1.22764 26.7103 0.866585C26.7103 1.37212 26.7831 1.8775 26.6375 2.23855C26.4192 2.81617 25.7641 2.81617 25.2547 2.81617C20.3784 2.52736 17.54 4.54918 14.5561 6.2822C13.7555 6.78773 12.8822 7.14878 12.227 7.79864C9.0975 10.687 5.67687 13.3587 4.87625 18.7023L4.22125 24.6234C4.14844 25.2733 3.42062 25.9231 3.56625 26.7175L4.07562 30.2557C3.56609 29.7502 3.275 30.4002 3.42062 30.689C3.49344 30.9056 3.78453 31.6277 4.22125 30.9778C4.80344 32.061 5.38578 34.1551 6.18625 35.0937C8.66078 37.9821 11.8631 40.5816 14.4833 43.1812C15.1383 43.0367 15.6478 43.0367 15.7933 42.6034C16.0116 43.0367 15.575 43.47 15.2111 43.5422C16.3756 44.2643 17.6856 44.9142 19.4323 45.0585C21.6886 45.203 23.7992 45.5641 25.7642 46.0696C26.7831 45.7808 27.802 45.6363 28.8937 45.5641C29.2577 45.5641 29.4759 44.9864 29.9127 44.842L29.9855 44.1199C30.4222 44.7697 30.3494 43.9033 30.0583 43.47C30.5678 43.9033 30.7133 44.2643 30.9316 44.5531C30.9316 44.3366 31.5137 43.5422 31.5139 44.4809L31.6594 43.5422C31.8777 43.3977 31.9505 44.3366 32.1689 43.6866C32.3872 43.0367 32.8239 43.5421 33.2606 43.3255C33.115 43.6143 33.1878 44.1921 33.6972 43.831L34.2795 43.3255C34.6434 44.1921 35.2256 43.831 35.5167 43.6866C38.7191 41.6647 41.9214 39.2819 44.9781 36.899L44.9053 37.8377L45.2692 36.6823C45.6331 37.0433 45.9242 36.7545 46.0698 36.5379C46.5066 35.8158 47.0887 35.0937 48.035 34.4439C46.8705 37.5488 45.4877 40.004 43.7409 42.0258L43.0131 42.8924C43.0131 43.3979 42.8675 44.0478 42.2853 44.1199C41.9942 44.1921 41.4119 43.9754 40.9753 44.4087C40.757 44.6975 41.4848 45.2752 40.9025 44.842C40.393 44.4809 39.8836 44.842 39.3012 44.9864C38.8645 45.1309 39.5923 45.5641 39.738 45.8529C39.8836 46.1417 40.0291 46.4305 39.9564 46.7917L39.1558 45.9251C38.2097 46.4306 37.6273 47.3693 36.8267 48.0914C36.4628 48.3802 36.6084 48.8858 36.6084 49.3189C36.0989 49.3189 35.5167 49.1744 35.2256 49.4634C35.0073 49.7522 35.08 50.1855 35.08 50.6188C34.3522 50.5465 34.2794 49.4634 33.6245 49.6799C32.9695 49.8244 32.2417 49.8965 31.6594 50.2577C32.0961 51.1243 30.9316 50.6188 31.0772 50.7631C29.9855 50.1132 29.0394 49.6077 27.8748 50.041C25.4003 49.2467 22.3436 49.6077 20.0873 49.8967C20.0873 49.5356 20.1602 49.1746 20.0145 49.1023C19.8689 49.4634 19.4323 49.3189 19.5052 49.3189C18.1223 48.3802 16.7395 47.8024 15.2839 47.0083C13.9739 47.1527 12.7366 46.5027 12.3727 46.1417C11.3537 45.203 10.1892 45.7084 9.24312 45.4918C7.20531 44.9863 6.4775 42.8922 6.25906 41.4482C6.11344 40.7261 5.53125 40.4373 5.31297 40.5093C4.36687 37.4766 2.91125 34.7327 1.74672 31.9165C1.45562 31.1944 1.52844 30.4723 1.52844 29.678C1.89234 29.8224 2.25625 29.7502 2.18344 29.2448C1.81953 26.862 0.94625 25.0567 0 23.3237C0.509531 20.8686 0.582187 17.9802 1.74672 15.8139C2.76562 13.8643 4.65797 12.8532 5.96797 11.1924C6.40469 10.6148 6.40469 9.82047 6.84141 9.31509C8.29703 7.87088 9.75266 6.35444 11.3538 5.05471C12.0816 4.4771 12.9548 5.05471 14.0466 4.83815C14.4105 3.53842 15.8661 2.38303 17.2489 2.74408C17.8311 2.88856 18.9956 1.37212 19.3595 1.22764C19.9417 1.01107 19.6506 1.80526 19.6506 2.31079C21.0334 1.22764 22.9258 0.650016 24.6725 0Z" fill="#30352F"/>
<g filter="url(#filter0_d_108_262)">
<path fill-rule="evenodd" clip-rule="evenodd" d="M24.0692 33.4511L24.0575 33.4967C24.0145 33.7842 24.0834 34.0812 24.2479 34.3168C24.3622 34.4857 24.4894 34.6434 24.628 34.7889C24.6355 34.8023 24.6401 34.8174 24.6418 34.8332C24.642 34.8439 24.6352 34.8529 24.6256 34.855C24.6123 34.8564 24.5988 34.853 24.5871 34.8456C24.3679 34.7333 24.1661 34.5831 23.9894 34.4008C23.8317 34.226 23.7086 34.0175 23.6284 33.7889C23.6234 33.7323 23.6007 33.6787 23.5641 33.637C23.501 33.5842 23.4362 33.5341 23.3697 33.4862C23.2747 33.4325 23.2006 33.3418 23.1629 33.2325C23.1551 33.1438 23.1598 33.0548 23.1763 32.9685C23.1831 32.9278 23.2086 32.8943 23.2434 32.8794C23.2668 32.8704 23.2899 32.86 23.3124 32.8484L23.349 32.835C23.3856 32.8151 23.414 32.7807 23.429 32.739L23.44 32.6943C23.4563 32.5982 23.5035 32.5126 23.5727 32.4521C23.5983 32.4408 23.6246 32.4305 23.6509 32.4209C23.8504 32.3923 24.0499 32.3645 24.2494 32.3371C24.3869 32.34 24.5189 32.287 24.6197 32.1881C24.743 31.9275 24.6684 31.6016 24.4453 31.4259L24.3988 31.341C24.3378 31.1958 24.2638 31.0574 24.178 30.9272C23.9274 30.5954 23.7054 30.2394 23.515 29.8634C23.3413 29.6851 23.1898 29.4822 23.0646 29.2607C22.9863 29.0686 22.8856 28.8876 22.7657 28.7223C22.609 28.5001 22.3829 28.3488 22.133 28.2986C22.0653 28.2945 21.9978 28.2891 21.9302 28.2826C21.9001 28.2788 21.872 28.2613 21.8531 28.2347C21.8448 28.2154 21.8483 28.1925 21.862 28.1779C21.9138 28.1255 21.9728 28.0818 22.0367 28.0485C22.0497 28.0424 22.0599 28.0313 22.066 28.0174C22.07 27.9987 22.0627 27.9787 22.0479 27.9678C22.0016 27.9337 21.954 27.9024 21.9053 27.8735C21.7397 27.8089 21.569 27.7629 21.396 27.7363C21.2415 27.712 21.0848 27.713 20.9319 27.7392C20.918 27.7394 20.9045 27.7352 20.8927 27.727C20.8875 27.7233 20.8852 27.7161 20.8879 27.71C20.8925 27.6985 20.9008 27.6888 20.9109 27.6829C20.9703 27.6581 21.0308 27.6364 21.0923 27.6183C21.2477 27.5707 21.4011 27.5176 21.5528 27.4594C21.5832 27.4503 21.612 27.4374 21.6391 27.4205C21.6544 27.4113 21.66 27.3901 21.6519 27.3721C21.645 27.3566 21.6339 27.3434 21.6203 27.3343C21.2524 27.1565 20.853 27.079 20.4569 27.1088C20.4327 27.1117 20.4083 27.1109 20.3843 27.1067L20.3712 27.0988C20.3638 27.0922 20.3623 27.0806 20.3676 27.0721C20.3774 27.0581 20.39 27.0467 20.4045 27.039C20.4915 26.9985 20.5769 26.9541 20.6606 26.9064C20.9079 26.8443 21.1599 26.8022 21.4139 26.7807C21.4798 26.7919 21.5456 26.804 21.6111 26.8168C21.6484 26.8216 21.6824 26.7962 21.6911 26.7566C21.6947 26.736 21.6882 26.7147 21.6738 26.7003C21.5762 26.6003 21.4836 26.4942 21.397 26.3827C21.367 26.3331 21.3337 26.2855 21.2975 26.2409C21.1575 26.141 21.0274 26.0245 20.91 25.8937C20.8985 25.8834 20.8896 25.8707 20.8834 25.8562C20.8816 25.8516 20.8817 25.8465 20.8837 25.842C20.8856 25.8375 20.8891 25.8341 20.8933 25.833C20.9059 25.8289 20.9194 25.8289 20.9322 25.8329C20.982 25.8483 21.0306 25.8679 21.0777 25.8914C21.371 26.0904 21.6595 26.2982 21.9433 26.514C21.9776 26.5456 22.0155 26.5721 22.0563 26.5927C22.0779 26.6044 22.1037 26.5996 22.1201 26.581C22.1362 26.5605 22.1466 26.5353 22.1496 26.5081C22.1414 26.357 22.1401 26.2055 22.1465 26.0548C22.1462 26.0379 22.1507 26.0214 22.159 26.0075C22.1661 25.9979 22.1784 25.9956 22.1883 26.0016C22.2016 26.0116 22.2115 26.0264 22.2163 26.0432C22.256 26.2396 22.3425 26.4221 22.4672 26.5721C22.6643 26.7385 22.9183 26.7977 23.1548 26.7324C23.2788 26.7232 23.3929 26.6598 23.4717 26.5568C23.5505 26.4539 23.5879 26.3193 23.575 26.1833C23.5423 25.975 23.4417 25.7847 23.292 25.6484C23.0365 25.4374 22.7445 25.287 22.4355 25.2073C22.0673 25.1056 21.6907 25.054 21.3136 25.0542C20.9725 25.0434 20.6362 25.122 20.3328 25.284C19.8183 25.5016 19.4198 25.953 19.2384 26.5242C19.1615 26.7533 19.1528 27.005 19.2138 27.2439C19.226 27.3199 19.2515 27.3932 19.2886 27.4593C19.3818 27.5748 19.4696 27.6956 19.552 27.8204C19.9241 28.2446 20.3459 28.6134 20.8053 28.9163C21.3725 29.2659 21.7824 29.8611 21.9307 30.5507C22.1159 31.1894 21.9381 31.8767 21.4791 32.2972C21.1092 32.7099 20.6082 32.9517 20.074 32.9756C19.6424 33.0133 19.2057 32.9583 18.7885 32.8136C18.3669 32.6854 17.9816 32.4357 17.673 32.0911C17.4116 31.8859 17.1691 31.6529 16.949 31.3955C16.8051 31.1177 16.6565 30.8431 16.503 30.5714C16.2682 30.0203 16.0794 29.4482 15.9396 28.8621C15.8525 28.639 15.7697 28.4138 15.6918 28.1867C15.5132 27.7067 15.1758 27.3143 14.7482 27.0903C14.7174 27.0784 14.6881 27.0619 14.6616 27.0411C14.6502 27.0325 14.6431 27.0192 14.6411 27.0045C14.6391 26.9897 14.6429 26.9754 14.6515 26.9641C14.6638 26.9537 14.6788 26.9471 14.6943 26.9452C14.7753 26.9341 14.8565 26.9204 14.9366 26.9044C14.9495 26.9004 14.9608 26.8909 14.9676 26.8785C14.9855 26.8404 14.9789 26.7937 14.9519 26.7621C14.7059 26.4959 14.4349 26.2598 14.1435 26.0572C13.8583 25.9097 13.585 25.7355 13.326 25.5367C13.0964 25.4466 12.868 25.3536 12.6399 25.2576C12.6062 25.2502 12.5729 25.2398 12.5408 25.2263C12.5378 25.2244 12.5356 25.2209 12.5353 25.2172C12.5347 25.2129 12.5359 25.2089 12.5388 25.206L12.5701 25.1875C12.9395 25.0419 13.349 25.0534 13.7193 25.2198C13.7353 25.2248 13.7521 25.2249 13.7683 25.2205C13.7794 25.2173 13.7883 25.2081 13.7922 25.196C13.7952 25.1798 13.7926 25.1628 13.7852 25.1482C13.7595 25.0929 13.7261 25.0423 13.6858 24.9983C13.4945 24.8568 13.3005 24.7191 13.1045 24.5858C12.8349 24.3993 12.546 24.2493 12.245 24.1389C12.0253 24.07 11.805 24.0036 11.584 23.9398C11.3816 23.8663 11.1716 23.8265 10.9601 23.8219C10.932 23.8187 10.9042 23.8112 10.8778 23.7995C10.8669 23.7938 10.859 23.783 10.8562 23.7702C10.8543 23.7502 10.8656 23.7318 10.8832 23.7263C10.9402 23.7119 10.9974 23.7008 11.0551 23.6929C11.2796 23.6281 11.5172 23.6242 11.7465 23.6815C11.9661 23.6576 12.1889 23.6797 12.4031 23.7465C12.4367 23.7593 12.4716 23.7677 12.5067 23.7718C12.5273 23.7734 12.5458 23.7577 12.5487 23.7352C12.5516 23.7102 12.5437 23.6847 12.5276 23.6659C12.4627 23.5977 12.3949 23.5332 12.3236 23.4729C11.853 23.1278 11.3457 22.8483 10.8143 22.641C10.5117 22.5386 10.2039 22.4569 9.89306 22.3962C9.87063 22.3897 9.84875 22.3795 9.82934 22.366C9.82658 22.3639 9.82503 22.3609 9.82478 22.3574C9.82436 22.3546 9.82555 22.3518 9.82747 22.3501C9.83704 22.3435 9.84809 22.3394 9.8596 22.3384C10.6062 22.2848 11.3577 22.4606 12.0298 22.8461C12.3202 23.0081 12.6046 23.184 12.8817 23.3731C12.9681 23.4506 13.0545 23.5284 13.1404 23.6066C13.1452 23.6099 13.1514 23.6115 13.1571 23.6112C13.1619 23.6107 13.1662 23.6085 13.1691 23.6046C13.1765 23.5943 13.1805 23.5812 13.1801 23.5678C13.1689 23.3814 13.1141 23.2002 13.02 23.0416L12.513 22.3162C12.4905 22.2918 12.4729 22.263 12.461 22.2314C12.4598 22.2248 12.462 22.2182 12.4671 22.2144C12.474 22.2096 12.4825 22.2083 12.4902 22.211C12.5503 22.2422 12.606 22.2823 12.6559 22.3303C12.8566 22.4807 13.0337 22.6664 13.1802 22.8793C13.3554 23.0366 13.5055 23.2248 13.6245 23.4358C13.7983 23.7254 13.9461 24.0325 14.0654 24.3527L14.0786 24.3716C14.0875 24.3804 14.0999 24.3834 14.111 24.3796C14.1299 24.3699 14.1432 24.3506 14.1457 24.3278C14.1481 24.2595 14.142 24.1908 14.1273 24.1238C14.062 23.881 13.9949 23.6388 13.9255 23.3971C13.9162 23.3628 13.9093 23.3277 13.905 23.2922C13.9049 23.2831 13.9077 23.2745 13.9132 23.2679C13.9171 23.2634 13.9232 23.2623 13.9283 23.2653L13.9703 23.3097C14.1474 23.555 14.3125 23.8102 14.4651 24.0743C14.6955 24.4527 14.8961 24.8515 15.0637 25.2664C15.0696 25.278 15.0785 25.2875 15.0892 25.2938C15.0943 25.297 15.101 25.2958 15.1047 25.2906C15.1139 25.278 15.1196 25.2627 15.1211 25.2466C15.1461 25.0251 15.1154 24.799 15.0323 24.5921C15.0253 24.5772 15.0203 24.5613 15.0176 24.5448C15.0176 24.5399 15.0189 24.5351 15.0218 24.5314C15.0241 24.5282 15.0276 24.5262 15.0316 24.526C15.0448 24.5271 15.0568 24.534 15.0656 24.5451C15.36 24.9657 15.5865 25.4375 15.7343 25.9392C15.8006 26.0402 15.8447 26.1563 15.8627 26.2781C15.9432 26.5929 16.0086 26.9117 16.0583 27.2333C16.1114 27.5695 16.184 27.9022 16.276 28.2295C16.3225 28.4613 16.3762 28.6919 16.4366 28.9203C16.5125 29.162 16.5843 29.4053 16.6513 29.6499C16.761 30.0441 16.9415 30.4126 17.1823 30.733C17.4842 31.1406 17.8369 31.5003 18.2295 31.8006C18.7019 32.0744 19.21 32.2619 19.7336 32.3556C20.0479 32.4307 20.373 32.381 20.6507 32.2155C20.855 32.0618 21.0286 31.8646 21.1617 31.6354C21.2787 31.491 21.3593 31.3151 21.3959 31.1247C21.4113 31.0606 21.41 30.9923 21.3918 30.9281C21.3866 30.9054 21.3702 30.8873 21.3496 30.8817C21.329 30.8757 21.3073 30.883 21.2937 30.9003C21.2186 31.0028 21.1419 31.1038 21.0634 31.203C20.9996 31.2875 20.9236 31.3599 20.8387 31.4183C20.8337 31.4203 20.8286 31.4206 20.8234 31.4186C20.8184 31.4169 20.8143 31.4131 20.8116 31.4082C20.805 31.3951 20.8027 31.3801 20.8049 31.3656C20.8578 31.1074 20.9237 30.8531 21.002 30.6034C21.0616 30.1167 20.8414 29.6312 20.4475 29.3805C20.4346 29.3707 20.4197 29.3646 20.4044 29.3624C20.3922 29.362 20.381 29.369 20.375 29.3806L20.3672 29.4034C20.3626 29.4215 20.3594 29.4401 20.3581 29.4589C20.3535 29.6891 20.3516 29.9197 20.352 30.1501C20.3509 30.1688 20.3457 30.1871 20.3369 30.2031C20.3277 30.2245 20.3063 30.236 20.2851 30.2307C20.2585 30.2201 20.2359 30.1997 20.2213 30.1735C20.0987 29.8447 19.924 29.5414 19.7056 29.2771C19.5533 29.0958 19.4243 28.8926 19.3227 28.6737C19.3104 28.6462 19.2931 28.6219 19.2719 28.602C19.2529 28.5871 19.2277 28.587 19.2094 28.6017C19.1976 28.6141 19.1873 28.6283 19.1792 28.6436C19.1088 28.901 19.0662 29.1674 19.0521 29.4375C19.0506 29.4455 19.0473 29.4528 19.0426 29.4591C19.0394 29.4629 19.035 29.465 19.0302 29.4651C19.0168 29.4659 19.0039 29.4585 18.996 29.4464C18.983 29.4278 18.9721 29.4075 18.9637 29.3859C18.7969 29.1428 18.6531 28.8818 18.5349 28.6076C18.4553 28.3072 18.4073 27.9984 18.3918 27.688C18.398 27.6517 18.399 27.6143 18.3949 27.5773C18.39 27.5539 18.3737 27.5346 18.3525 27.5276C18.3302 27.5224 18.3072 27.5303 18.2919 27.5484C18.1304 27.7479 18.0003 27.9756 17.9063 28.2227C17.9007 28.2412 17.8909 28.2577 17.8779 28.271C17.8737 28.2751 17.8681 28.2778 17.8622 28.2785C17.8576 28.2787 17.8531 28.2767 17.85 28.2732C17.841 28.2624 17.8353 28.2494 17.8334 28.2351C17.7742 27.9513 17.7574 27.6602 17.7834 27.3731C17.8839 26.8414 18.0914 26.3439 18.3909 25.9164C18.4208 25.8931 18.4488 25.8668 18.4747 25.8381C18.4912 25.8198 18.4976 25.7929 18.4918 25.7673C18.4818 25.7397 18.4592 25.7197 18.4327 25.7149C18.1219 25.6984 17.8171 25.7907 17.5625 25.9781C17.5493 25.9878 17.5347 25.9949 17.5193 25.9985C17.5134 25.9994 17.5076 25.9962 17.5046 25.9907C17.5009 25.9841 17.5003 25.9765 17.5032 25.9699L17.5342 25.9219C17.7873 25.6532 18.0672 25.4172 18.3692 25.2178C18.4955 25.1161 18.6323 25.031 18.7771 24.964C19.0466 24.8379 19.3373 24.7727 19.6333 24.7719C19.669 24.7683 19.6962 24.7368 19.6976 24.6977C19.699 24.6584 19.6741 24.6229 19.6391 24.6141C19.5758 24.595 19.5125 24.5774 19.4486 24.561C19.3407 24.5226 19.2375 24.4699 19.1412 24.4032C19.1018 24.3837 19.0578 24.381 19.0177 24.3964C18.8266 24.4668 18.6315 24.5247 18.4336 24.5698C18.1681 24.5434 17.9059 24.625 17.6978 24.7996C17.5339 24.9901 17.3804 25.1909 17.2379 25.401C17.2205 25.4407 17.2009 25.479 17.1791 25.5159C17.1708 25.5308 17.1572 25.5412 17.1413 25.5447C17.1297 25.5465 17.1182 25.5396 17.1134 25.528L17.1069 25.4818C17.0837 25.1974 17.1504 24.9154 17.2956 24.6835C17.3089 24.666 17.3194 24.646 17.3264 24.6246C17.3308 24.6096 17.3299 24.5931 17.3238 24.5783C17.2984 24.5343 17.2483 24.5156 17.2047 24.5339C16.9838 24.6112 16.7723 24.7161 16.5741 24.8468C16.5546 24.8618 16.5309 24.8697 16.5064 24.8693C16.4934 24.8711 16.4802 24.8665 16.4704 24.8567C16.466 24.853 16.4633 24.8479 16.4624 24.8418C16.4613 24.8347 16.4623 24.8271 16.4651 24.8204C16.6965 24.4724 17.0051 24.1952 17.3629 24.0141C17.3803 24.0077 17.3959 23.9971 17.4087 23.9829C17.4314 23.9608 17.4342 23.9227 17.4153 23.8956C17.4034 23.8804 17.3885 23.8683 17.3721 23.8595C17.0898 23.7757 16.8028 23.7161 16.5135 23.6807C16.5077 23.6796 16.5032 23.6747 16.5025 23.6683C16.5014 23.6612 16.5038 23.6542 16.509 23.65C16.5222 23.6392 16.5366 23.6301 16.5518 23.6227C16.733 23.5783 16.9112 23.5223 17.0859 23.4552L17.1657 23.4496C17.2464 23.4537 17.327 23.4495 17.4065 23.4367C17.6013 23.4569 17.7973 23.4447 17.9872 23.4001C18.0183 23.393 18.0425 23.3666 18.0495 23.3326C18.0525 23.3204 18.0498 23.3071 18.0425 23.2972L18.008 23.2709C17.9515 23.2277 17.8969 23.182 17.8437 23.134C17.7941 23.0996 17.7455 23.0635 17.6981 23.0256C17.6937 23.021 17.6904 23.0147 17.6894 23.0081C17.6887 23.0032 17.6903 22.9982 17.6932 22.9947C17.7027 22.9847 17.7148 22.9781 17.7279 22.976C18.0019 22.9562 18.2767 22.9438 18.552 22.9392C18.6682 22.8987 18.7851 22.8599 18.9024 22.823C19.2081 22.6829 19.5105 22.5349 19.8092 22.3789C20.0082 22.3392 20.2048 22.2902 20.3994 22.232C20.6931 22.1893 20.9806 22.1102 21.2561 21.9962C21.2737 21.9868 21.2909 21.9762 21.3073 21.9647C21.3152 21.959 21.3224 21.9525 21.3288 21.945C21.3641 21.9065 21.3926 21.8617 21.4138 21.8121C21.4638 21.6824 21.4295 21.5296 21.3294 21.4358C21.2895 21.4114 21.2501 21.3862 21.2112 21.3603C21.184 21.3434 21.1629 21.3167 21.1516 21.2853C21.1252 21.195 21.1061 21.1028 21.0949 21.0094C21.0846 20.9322 21.0326 20.8686 20.9637 20.8485C20.8798 20.834 20.7962 20.8185 20.7126 20.8017C20.6288 20.7901 20.5556 20.7308 20.52 20.6461C20.4844 20.5613 20.4917 20.4637 20.5393 20.3889C20.707 20.1796 20.9571 20.0719 21.2144 20.0988C21.2818 20.1169 21.352 20.1146 21.4175 20.0926C21.7907 19.9327 22.2176 19.9907 22.5543 20.2471C22.5668 20.2555 22.5779 20.2664 22.5873 20.2787C22.5936 20.2895 22.5958 20.3023 22.5933 20.3146C22.5914 20.3238 22.5851 20.3308 22.5768 20.3327L22.5101 20.333C22.3488 20.3171 22.1865 20.3324 22.0317 20.3785C21.8836 20.3913 21.7474 20.4674 21.6523 20.5901C21.6402 20.6095 21.6397 20.6356 21.6514 20.6562C21.6622 20.6744 21.6754 20.6907 21.6908 20.7045C21.7902 20.778 21.8557 20.8953 21.8695 21.0243L21.8716 21.069C21.8693 21.0994 21.8744 21.1302 21.8859 21.1585C21.9309 21.2464 21.9621 21.3421 21.9774 21.4408C21.982 21.4638 21.9979 21.4825 22.0183 21.4893C22.0432 21.4962 22.0687 21.4996 22.0943 21.499C22.1093 21.4973 22.1233 21.4899 22.1338 21.4783C22.1488 21.4612 22.1615 21.4419 22.1721 21.421C22.2159 21.3264 22.28 21.245 22.359 21.1836C22.4022 21.1359 22.4606 21.1084 22.5228 21.1062C22.5381 21.1078 22.5521 21.1161 22.5617 21.1296C22.5995 21.1857 22.6438 21.236 22.6933 21.2799C22.7208 21.3067 22.7576 21.3186 22.7932 21.3113C22.9429 21.2734 23.1017 21.3002 23.237 21.386C23.2806 21.4025 23.3184 21.4344 23.344 21.4766L23.3626 21.5195C23.5024 21.7064 23.6 21.926 23.6473 22.1602C23.651 22.1742 23.6515 22.1889 23.649 22.2033C23.648 22.2073 23.6452 22.2106 23.6414 22.2115C23.6367 22.2128 23.6319 22.2114 23.6279 22.2084C23.6102 22.1906 23.594 22.1711 23.5797 22.15C23.4616 21.9078 23.2471 21.7383 23.0019 21.6932C22.9428 21.684 22.8858 21.7162 22.8593 21.7735C22.8384 21.8156 22.8177 21.8581 22.7968 21.9006C22.785 21.9298 22.7616 21.9512 22.7331 21.9591C22.6892 21.9726 22.6442 21.9818 22.5986 21.9863C22.4089 22.0379 22.2105 22.045 22.0159 22.0077C22.0018 22.0027 21.9871 22.0022 21.973 22.0059C21.9549 22.0147 21.9412 22.0311 21.9349 22.0515C21.9243 22.1078 21.9307 22.1668 21.9529 22.2199C21.9792 22.2554 22.0151 22.2809 22.0551 22.2919C22.1017 22.3048 22.1352 22.3498 22.1374 22.4019C22.1174 22.5057 22.0844 22.6058 22.0394 22.6991C22.0188 22.7357 22.0028 22.775 21.9914 22.8163C21.9841 22.8402 21.9911 22.8669 22.0085 22.8843L22.0301 22.9004C22.0728 22.9238 22.1087 22.9604 22.1337 23.0051C22.1785 23.0894 22.237 23.1643 22.3065 23.2261C22.5217 23.3236 22.7485 23.3844 22.9788 23.4064C23.0419 23.4116 23.1039 23.4289 23.1622 23.4573C23.1663 23.4601 23.169 23.4646 23.1696 23.4699C23.1703 23.4746 23.1686 23.4795 23.1653 23.4827C23.0322 23.5666 22.8821 23.6142 22.7269 23.6217C22.5276 23.6632 22.3227 23.6681 22.12 23.6362C22.0327 23.6412 21.947 23.601 21.889 23.5277C21.8536 23.4865 21.8111 23.4536 21.764 23.4312C21.6662 23.4077 21.5675 23.3877 21.4685 23.3717C21.379 23.3672 21.2973 23.3106 21.2547 23.2233C21.2087 23.167 21.2009 23.0855 21.2353 23.0224C21.251 23.0021 21.268 22.983 21.2857 22.9648C21.3451 22.9172 21.3791 22.8403 21.3765 22.7583C21.3632 22.686 21.3463 22.6144 21.3264 22.5439C21.3198 22.5066 21.3091 22.4704 21.2941 22.4359C21.2878 22.4219 21.2756 22.4121 21.2613 22.4102L21.2407 22.4137C21.2242 22.4168 21.2083 22.423 21.1939 22.4322C21.0006 22.5806 20.7891 22.6994 20.5655 22.7853C20.3771 22.7994 20.1895 22.8185 20.0024 22.8426C19.7524 22.8621 19.5135 22.9541 19.3101 23.1092C19.1017 23.268 18.9059 23.4459 18.7254 23.6412C18.7127 23.6513 18.7023 23.6647 18.6949 23.6799C18.6817 23.7022 18.687 23.7325 18.7069 23.749C18.718 23.7551 18.7303 23.758 18.743 23.7575C19.1155 23.7501 19.4888 23.7628 19.8614 23.7956C20.1066 23.7821 20.353 23.8336 20.5796 23.9458C20.7492 23.9971 20.894 24.1221 20.98 24.2913C21.0031 24.3509 21.0358 24.4053 21.0771 24.452C21.091 24.4656 21.1106 24.4695 21.1274 24.4621C21.6178 24.3434 22.1318 24.3678 22.6184 24.5331C23.0269 24.6206 23.4089 24.8277 23.7237 25.1319C23.8916 25.3178 24.0503 25.5132 24.1989 25.7175C24.2958 25.7899 24.3709 25.8922 24.4142 26.011C24.8655 26.7679 25.3241 27.5195 25.7903 28.2657C26.2397 28.8405 26.742 29.3631 27.2889 29.8251C27.9369 30.2435 28.6733 30.4591 29.4158 30.4476C29.8873 30.4332 30.342 30.2758 30.7296 29.9926C31.2213 29.6092 31.6562 29.1461 32.0198 28.6184C32.1082 28.3645 32.1989 28.1122 32.2914 27.8601C32.4807 27.4682 32.5605 27.0217 32.5213 26.574C32.5195 26.5087 32.5046 26.4439 32.4777 26.385C32.4727 26.3772 32.465 26.3724 32.4565 26.3715C32.4459 26.3706 32.4354 26.3739 32.4269 26.3807C32.4 26.4088 32.3749 26.4389 32.3515 26.4707C32.1645 26.7443 31.9641 27.0065 31.7507 27.2559C31.7352 27.2792 31.7146 27.298 31.6909 27.3102C31.6833 27.3129 31.6751 27.3097 31.6707 27.3024C31.6639 27.2909 31.6609 27.2771 31.6628 27.2637C31.6726 27.2205 31.6856 27.1779 31.7021 27.1373C31.7469 27.0352 31.7818 26.9282 31.806 26.8176C31.8047 26.648 31.8255 26.48 31.8678 26.3181C32.0208 25.6452 31.9252 24.9259 31.6019 24.3143C31.5942 24.2989 31.5831 24.2856 31.5699 24.2757C31.5631 24.271 31.5548 24.2696 31.5473 24.2723C31.5397 24.2749 31.5337 24.2812 31.5309 24.2892L31.5268 24.3112C31.5244 24.3291 31.5242 24.3479 31.5258 24.3662C31.4965 24.62 31.4644 24.8727 31.4292 25.1254L31.1633 26.3534C31.1615 26.3705 31.1545 26.3861 31.1439 26.3984C31.1384 26.4045 31.1304 26.4067 31.1227 26.4044C31.1127 26.4013 31.1039 26.3942 31.0982 26.3847C31.0907 26.3671 31.0842 26.3495 31.0784 26.3311C30.9795 26.0063 30.8716 25.6848 30.7544 25.3669C30.6279 24.8513 30.4447 24.3531 30.2088 23.8832C30.0817 23.6219 29.9627 23.356 29.8516 23.0865C29.8415 23.0679 29.828 23.052 29.812 23.0395C29.7946 23.0306 29.7741 23.0386 29.7664 23.0572C29.7087 23.217 29.6773 23.3869 29.6734 23.5601C29.698 23.9719 29.7248 24.3839 29.7541 24.7959C29.7578 24.8325 29.7589 24.8691 29.7575 24.906C29.7566 24.9105 29.754 24.9149 29.75 24.9169C29.7451 24.9194 29.7393 24.9201 29.734 24.9181C29.7052 24.9046 29.6793 24.8844 29.6577 24.8598C29.3915 24.4442 29.136 24.0206 28.8917 23.5893C28.7229 23.2199 28.5828 22.8364 28.4729 22.4428C28.3714 22.0007 28.2918 21.5534 28.2344 21.1031C28.2279 21.0602 28.1996 21.0248 28.1614 21.0122C28.1284 21.0098 28.0958 21.0198 28.0693 21.0407C27.7258 21.3459 27.469 21.7522 27.3272 22.2138C27.3151 22.2418 27.3094 22.2728 27.3104 22.3041C27.3122 22.3406 27.3119 22.3771 27.3092 22.4134C27.3079 22.4233 27.3024 22.4318 27.2945 22.4366C27.2873 22.4408 27.2787 22.4404 27.2715 22.4357C27.2584 22.4249 27.2489 22.4099 27.244 22.3928C27.0107 21.673 26.9267 20.9094 26.9985 20.1588C27.002 19.7113 27.0865 19.2717 27.2478 18.8655C27.3031 18.7772 27.3364 18.6742 27.3451 18.5664C27.3462 18.5419 27.3362 18.5181 27.3184 18.5027C27.2988 18.4916 27.2759 18.4917 27.2571 18.5031C27.0011 18.6366 26.7742 18.8265 26.5899 19.0612C26.441 19.2664 26.2905 19.4705 26.1384 19.6728C26.1294 19.6855 26.1175 19.6952 26.1038 19.7012C26.0944 19.7042 26.0843 19.6991 26.0798 19.6894L26.0751 19.6704C26.0732 19.6555 26.0734 19.6403 26.0758 19.6256C26.0871 19.5921 26.098 19.5587 26.1085 19.525C26.1553 18.9628 26.3131 18.422 26.571 17.9395C26.7713 17.4303 27.1335 17.0215 27.5918 16.7873C27.9262 16.5446 28.2949 16.362 28.6844 16.2461C28.7116 16.2391 28.7366 16.225 28.7576 16.2052C28.7825 16.164 28.7721 16.1076 28.7343 16.0784C28.5489 15.9147 28.3408 15.7857 28.1182 15.6967C27.8785 15.611 27.6344 15.5433 27.3872 15.4939C27.3855 15.4932 27.3843 15.4914 27.384 15.4893C27.3837 15.4872 27.3841 15.4849 27.3856 15.4832C27.42 15.4478 27.4604 15.4201 27.5049 15.4021C27.577 15.3629 27.6523 15.3314 27.73 15.308C28.1234 15.2407 28.5168 15.1753 28.9105 15.1116C28.9347 15.1007 28.961 15.0955 28.9874 15.0963C29.1688 15.1174 29.351 15.1162 29.5309 15.0926C29.7483 15.1161 29.967 15.1201 30.1842 15.1046C30.4121 15.1276 30.6393 15.1605 30.8653 15.203C30.8845 15.2049 30.902 15.1927 30.9082 15.1732C30.9125 15.1568 30.9125 15.1394 30.9084 15.1226C30.8648 14.9771 30.7703 14.8547 30.646 14.7831C30.6435 14.7814 30.6421 14.7782 30.6421 14.7752C30.6421 14.7725 30.6436 14.7699 30.646 14.769C30.6901 14.7557 30.7368 14.7537 30.7825 14.7633C31.0491 14.7615 31.3155 14.8023 31.5734 14.8843C31.634 14.9097 31.6972 14.926 31.7613 14.9328C31.7899 14.9356 31.8157 14.9149 31.8216 14.8842C31.8223 14.8568 31.8149 14.8297 31.8008 14.8065C31.5946 14.5158 31.3586 14.2515 31.0974 14.0195C31.0818 14.0083 31.0681 13.9941 31.0568 13.9775C31.0516 13.9694 31.0499 13.9593 31.0519 13.95C31.0539 13.9412 31.0597 13.9343 31.0674 13.9313C31.0829 13.927 31.0991 13.9273 31.1148 13.9317C31.2613 13.9785 31.4055 14.0351 31.5464 14.1009C32.0016 14.2938 32.431 14.5565 32.8215 14.8811C32.8465 14.911 32.8825 14.9272 32.919 14.9248C32.9273 14.9237 32.9347 14.9189 32.9396 14.912C32.9447 14.9047 32.9468 14.8956 32.9456 14.8865C32.9388 14.8351 32.9196 14.7861 32.8901 14.7448C32.7444 14.5392 32.6166 14.3192 32.5085 14.0878C32.3608 13.8626 32.222 13.6305 32.0924 13.3926C32.0554 13.3424 32.0276 13.2852 32.0104 13.224C32.0042 13.2031 32.0114 13.1804 32.028 13.169C32.0446 13.1576 32.0665 13.1595 32.0816 13.1743C32.0938 13.1874 32.1039 13.2026 32.1117 13.2193C32.2995 13.4481 32.4787 13.6851 32.6486 13.9298C32.9514 14.2261 33.2534 14.5232 33.5547 14.8214C33.7677 15.0154 33.9955 15.1885 34.2355 15.3389C34.2567 15.3563 34.2831 15.3643 34.3091 15.3612C34.3191 15.3596 34.3276 15.3527 34.3318 15.3427C34.3357 15.3307 34.3355 15.3177 34.3317 15.3056C34.256 15.131 34.1754 14.9589 34.0905 14.7892C33.9859 14.6234 33.9216 14.4321 33.9038 14.2336C33.8534 13.9085 33.8113 13.582 33.7776 13.2547C33.7782 13.2396 33.783 13.2252 33.7916 13.2137C33.7994 13.2048 33.8112 13.2015 33.822 13.2059C33.8348 13.2118 33.8446 13.2232 33.849 13.2376C34.0466 13.8793 34.3536 14.4772 34.753 14.9988C34.7723 15.0266 34.7971 15.0496 34.8255 15.0657C34.8447 15.076 34.8673 15.0697 34.8793 15.0511C34.8924 15.0264 34.8979 14.9977 34.8949 14.9691C34.88 14.8701 34.8639 14.7714 34.8464 14.6728C34.8133 14.3101 34.8272 13.9458 34.8877 13.5905C34.8891 13.5229 34.8989 13.4564 34.9173 13.3924C34.919 13.3885 34.9223 13.3857 34.9262 13.3855C34.9297 13.385 34.9331 13.3869 34.935 13.3903C34.9621 13.4649 34.9863 13.5406 35.0078 13.6173C35.0818 13.9973 35.1843 14.3709 35.3141 14.7343C35.3784 14.9261 35.4636 15.1094 35.5677 15.2797C35.5932 15.3295 35.6256 15.3749 35.6637 15.4141C35.6687 15.4178 35.6746 15.4193 35.6806 15.4184C35.6863 15.4178 35.6913 15.4146 35.6948 15.4096C35.7072 15.3879 35.711 15.3615 35.7057 15.3363C35.6387 14.975 35.6129 14.6074 35.6294 14.242C35.6297 14.1811 35.6368 14.1208 35.6512 14.0622C35.6559 14.0503 35.6641 14.0401 35.6744 14.0337C35.6814 14.0292 35.6902 14.029 35.6977 14.0331C35.7117 14.0408 35.7229 14.0538 35.7289 14.0697C35.7446 14.1191 35.7559 14.1699 35.7628 14.2215C35.8421 14.5094 35.9313 14.7942 36.0305 15.0752C36.1543 15.3477 36.2983 15.6094 36.4613 15.8571C36.5181 15.9867 36.6325 16.0755 36.7621 16.0907C36.9362 16.1121 37.0953 16.2161 37.1969 16.375C37.2592 16.4603 37.3308 16.5372 37.4098 16.6037C37.575 16.6636 37.7352 16.7403 37.8882 16.8327C37.9873 16.8772 38.0562 16.9793 38.0648 17.0957C38.0611 17.1317 38.0577 17.168 38.055 17.2045C38.0541 17.2349 38.074 17.2621 38.1016 17.2682C38.1369 17.2785 38.1724 17.2877 38.2081 17.2959C38.4669 17.3246 38.7265 17.3429 38.9858 17.3509C39.1609 17.3326 39.3289 17.2719 39.4781 17.1737C39.4931 17.169 39.5077 17.1633 39.5219 17.1563L39.5331 17.1444C39.5458 17.1265 39.552 17.104 39.5503 17.0809C39.5429 17.0112 39.5347 16.9419 39.5253 16.8724C39.5194 16.8004 39.5626 16.736 39.6266 16.7213C39.6622 16.7004 39.7029 16.6916 39.7437 16.6957C39.8282 16.723 39.9136 16.7463 39.9998 16.766C40.026 16.7752 40.0538 16.7768 40.0804 16.7706C40.1058 16.76 40.1311 16.749 40.1563 16.7377C40.294 16.6419 40.4535 16.5886 40.6184 16.5833C40.6517 16.5762 40.6865 16.5784 40.7193 16.5896C40.7425 16.6013 40.7595 16.6244 40.7645 16.6519C40.8094 16.8588 40.7998 17.074 40.7369 17.272L40.7212 17.3199C40.7139 17.3487 40.7134 17.3793 40.7198 17.4088L40.8426 17.9272C40.8689 18.0219 40.8687 18.122 40.842 18.2152C40.8375 18.2292 40.8269 18.2397 40.8138 18.2433C40.8089 18.2446 40.8039 18.2436 40.7997 18.2404C40.7937 18.236 40.7889 18.2297 40.7858 18.2224C40.743 18.0317 40.6515 17.8568 40.5225 17.7181C40.4516 17.6112 40.3175 17.5824 40.2194 17.6537C40.1796 17.6667 40.1485 17.7001 40.1356 17.7435C40.1306 17.7951 40.1351 17.8478 40.1487 17.8981C40.2322 18.0926 40.2498 18.3112 40.1985 18.5146C40.1925 18.5532 40.183 18.591 40.1701 18.6274C40.1673 18.633 40.1612 18.6355 40.1556 18.6335C40.1467 18.63 40.1391 18.6231 40.1342 18.6139C40.1223 18.585 40.1128 18.5552 40.1061 18.5246C40.0477 18.3353 39.964 18.1559 39.8579 17.9922C39.8244 17.9243 39.7522 17.8907 39.6857 17.9124L39.6482 17.9337C39.5665 17.9901 39.4729 18.0232 39.3754 18.0302C39.2403 18.0031 39.1021 18.0222 38.9793 18.0848C38.8882 18.156 38.7728 18.1808 38.6617 18.1527C38.6525 18.1498 38.6431 18.1466 38.634 18.1431C38.6147 18.1357 38.5953 18.1297 38.5754 18.1252C38.5351 18.1215 38.4945 18.1216 38.4544 18.126C38.3216 18.1408 38.1888 18.1548 38.0561 18.1681C37.8865 18.1492 37.7165 18.1783 37.5626 18.253C37.5432 18.2612 37.5283 18.2783 37.5218 18.3C37.5156 18.3218 37.5184 18.3458 37.5296 18.3655C37.6262 18.5279 37.7686 18.652 37.9344 18.7177C38.1247 18.7744 38.3204 18.8024 38.516 18.8013C38.8049 18.7812 39.0962 18.8082 39.3802 18.8818C39.6013 19.0198 39.8258 19.1507 40.0534 19.2746C40.3627 19.383 40.6779 19.4662 40.997 19.5233C41.0095 19.5242 41.0216 19.5291 41.0314 19.5379C41.0378 19.5437 41.0398 19.5536 41.0357 19.5613L41.0258 19.5705L40.9831 19.581C40.7707 19.6034 40.5561 19.601 40.3429 19.574L40.343 19.574C40.0217 19.4437 39.7023 19.3073 39.3851 19.1648C39.1684 19.1294 38.9492 19.1292 38.7344 19.1643C38.5554 19.1545 38.3763 19.1394 38.1978 19.1192C37.8198 19.0305 37.4761 18.8068 37.221 18.4837C37.1752 18.4333 37.1087 18.4129 37.0471 18.4305C37.0115 18.4329 36.982 18.4603 36.9744 18.4983C36.9684 18.5623 36.9712 18.6275 36.9829 18.6913C36.9837 18.8267 37.0714 18.9454 37.1925 18.9753C37.3952 19.051 37.5906 19.1493 37.7756 19.2688C37.9347 19.4146 38.1243 19.5145 38.3259 19.5592C38.6197 19.6305 38.919 19.6656 39.2181 19.6638C39.2355 19.6653 39.2527 19.6698 39.2691 19.6771C39.2973 19.6896 39.3242 19.7046 39.35 19.7224C39.4276 19.7836 39.5165 19.8247 39.6098 19.8423C39.7338 19.8211 39.8617 19.8344 39.9814 19.8811C40.2653 19.9119 40.54 20.0177 40.7821 20.1889L40.8006 20.2082C40.8048 20.2173 40.8037 20.228 40.798 20.2355L40.7829 20.2436C40.7523 20.2512 40.7213 20.2577 40.6902 20.2628C40.6569 20.2642 40.6243 20.2718 40.5936 20.2852C40.5798 20.2919 40.5689 20.3042 40.5635 20.3197C40.5577 20.346 40.563 20.3739 40.5777 20.3961C40.6959 20.557 40.7768 20.7465 40.8125 20.9477C40.8142 20.9603 40.8129 20.973 40.809 20.985C40.8075 20.9882 40.8041 20.9897 40.8009 20.9886C40.7936 20.9864 40.7867 20.9822 40.7812 20.9764C40.7593 20.9518 40.7383 20.9266 40.718 20.9009C40.6473 20.7854 40.5456 20.6967 40.4277 20.6472C40.4061 20.6406 40.3835 20.6488 40.3706 20.668C40.352 20.7028 40.3428 20.7429 40.3437 20.7838C40.3616 21.2347 40.2985 21.6825 40.158 22.1018C40.1513 22.1329 40.138 22.1616 40.1193 22.1854C40.1133 22.1919 40.1041 22.193 40.0968 22.1884C40.0877 22.1825 40.0817 22.1722 40.0806 22.1608C40.0796 22.1416 40.0814 22.1223 40.0859 22.1039C40.1196 22.0069 40.1282 21.901 40.1103 21.7978C40.0776 21.4881 40.0183 21.182 39.9334 20.8832C39.9131 20.8189 39.8801 20.7598 39.8367 20.7105C39.822 20.6939 39.7985 20.6912 39.7817 20.704C39.7663 20.7178 39.7534 20.7342 39.7436 20.7528C39.6652 20.9694 39.5353 21.1581 39.367 21.2993C39.362 21.3037 39.3552 21.3049 39.3491 21.3023C39.3432 21.2999 39.339 21.2939 39.3384 21.2871C39.3378 21.2722 39.3404 21.2573 39.3462 21.2441C39.4314 21.0607 39.4797 20.8587 39.488 20.6512C39.4892 20.6237 39.4767 20.5972 39.4555 20.5818C39.4343 20.5663 39.4073 20.5642 39.3848 20.5762C39.3624 20.5869 39.3399 20.5976 39.3177 20.6087C39.0246 20.7116 38.7167 20.7607 38.4062 20.754C38.3779 20.7555 38.3499 20.7444 38.3287 20.7233C38.3207 20.714 38.3192 20.7002 38.325 20.6895L38.3386 20.6746C38.3926 20.644 38.4474 20.6149 38.5029 20.5873C38.6683 20.5321 38.826 20.4541 38.9727 20.3553C38.9912 20.3393 38.9996 20.3127 38.9941 20.2872C38.978 20.2402 38.9358 20.2094 38.8905 20.2116C38.7168 20.2258 38.543 20.2365 38.369 20.2437C38.3424 20.2457 38.3155 20.2461 38.2888 20.2444C38.1562 20.2041 38.0205 20.1776 37.8839 20.1652C37.8593 20.1642 37.8347 20.1579 37.8119 20.147C37.8079 20.1448 37.8061 20.1397 37.808 20.1354C37.8114 20.1274 37.8173 20.121 37.8246 20.1173C37.8574 20.1033 37.8906 20.0902 37.924 20.0778C37.9542 20.0681 37.9792 20.0452 37.9929 20.0141C37.9975 20.0005 37.9956 19.9852 37.9882 19.973C37.9777 19.9584 37.9632 19.9475 37.947 19.9418C37.7669 19.9053 37.5879 19.863 37.4097 19.8149C37.2041 19.806 36.9989 19.778 36.7965 19.7312C36.7791 19.7275 36.763 19.7188 36.7499 19.7058C36.7365 19.685 36.7385 19.6571 36.7542 19.6397C36.7689 19.62 36.7867 19.6038 36.8071 19.5917C36.836 19.5721 36.864 19.551 36.8912 19.5285C36.9027 19.5187 36.9086 19.5026 36.9066 19.4864C36.9015 19.4608 36.8838 19.4401 36.8609 19.4328C36.7187 19.3881 36.5774 19.3392 36.4376 19.286C36.2966 19.1741 36.1353 19.0975 35.9658 19.062C35.948 19.0556 35.9317 19.0448 35.9181 19.0305C35.9112 19.0233 35.9073 19.0132 35.9079 19.0029C35.9083 18.9926 35.9129 18.9832 35.9203 18.9773C35.9268 18.9707 35.9337 18.9649 35.9411 18.9598C35.953 18.9521 35.9633 18.9422 35.9721 18.9303C35.9866 18.9131 35.9877 18.8867 35.9747 18.8671C35.9645 18.8531 35.9511 18.8423 35.936 18.8358C35.6346 18.7493 35.3317 18.6699 35.0277 18.5977C34.7417 18.4664 34.4568 18.3323 34.1726 18.1956C34.1577 18.1892 34.1444 18.1788 34.134 18.1655C34.1297 18.1599 34.1283 18.1521 34.1305 18.1454C34.1326 18.1388 34.1381 18.1341 34.1444 18.1335L34.1923 18.1411C34.4062 18.1842 34.6231 18.2019 34.8391 18.1939C34.8721 18.1965 34.9054 18.1956 34.9379 18.1906C34.9581 18.1871 34.9715 18.1665 34.9681 18.1441C34.9624 18.1177 34.9468 18.095 34.9253 18.0812C34.7434 17.9965 34.5661 17.899 34.3948 17.7897C34.3684 17.771 34.3521 17.7395 34.3512 17.7055C34.3507 17.6943 34.3565 17.6843 34.3658 17.68L34.3834 17.6787C34.5125 17.7142 34.6436 17.7391 34.7755 17.7527C35.0128 17.714 35.2518 17.6883 35.4921 17.6764C35.5291 17.6747 35.5634 17.6559 35.5864 17.6247C35.5984 17.6056 35.5963 17.5797 35.5816 17.5623C35.5696 17.5468 35.5551 17.5339 35.5387 17.5242C35.3757 17.4497 35.2115 17.3782 35.0467 17.3096C35.0305 17.305 35.0155 17.2966 35.0024 17.2849L34.9951 17.2696C34.9944 17.2563 35.0002 17.2438 35.0104 17.2367C35.0499 17.2113 35.091 17.189 35.1336 17.17C35.1545 17.1576 35.167 17.1336 35.1661 17.1075C35.1632 17.08 35.1499 17.0548 35.1296 17.0379C35.0558 16.9838 34.9759 16.9407 34.892 16.91C34.6549 16.7661 34.3919 16.6852 34.1241 16.6736C34.0418 16.6714 33.96 16.6566 33.8805 16.6298C33.8727 16.6255 33.8677 16.6166 33.8683 16.607C33.869 16.5937 33.8746 16.5814 33.8837 16.5728C33.8988 16.5619 33.9133 16.5502 33.9272 16.5376L33.9469 16.5212C33.9598 16.5059 33.9663 16.4854 33.9653 16.4645C33.9581 16.4132 33.9191 16.3736 33.8719 16.3704C33.6558 16.3441 33.4386 16.3429 33.2236 16.3669C32.899 16.4117 32.569 16.4056 32.2434 16.3488C31.584 16.1716 30.9003 16.1661 30.2477 16.3323C29.778 16.3938 29.3421 16.6162 29.0018 16.968C28.6764 17.3118 28.436 17.7407 28.3018 18.2167C28.2686 18.2913 28.2436 18.3702 28.2274 18.4517C28.1968 18.7038 28.1917 18.9594 28.2117 19.2142C28.2217 19.5968 28.3389 19.97 28.5473 20.2833C28.728 20.4927 28.9072 20.7038 29.0849 20.9162C29.5351 21.3652 30.0074 21.7867 30.4996 22.1788C30.8386 22.3979 31.1614 22.6464 31.4647 22.9222C31.8707 23.188 32.2455 23.509 32.5794 23.8772C32.6464 23.9644 32.7222 24.0432 32.8055 24.1119C32.8267 24.1252 32.8518 24.1276 32.8742 24.1185C32.9059 24.1028 32.9353 24.0827 32.9619 24.0583C33.0492 23.9462 33.1647 23.8645 33.295 23.8236C33.4016 23.7946 33.4866 23.7091 33.5215 23.5951C33.5562 23.4812 33.5363 23.3542 33.4683 23.2566C33.3923 23.1732 33.3079 23.099 33.2171 23.0357C33.0203 22.9284 32.875 22.7319 32.8208 22.4995C32.7443 22.3647 32.623 22.2668 32.4836 22.227C32.3374 22.1827 32.23 22.0432 32.2149 21.8787C32.2099 21.8407 32.1984 21.8039 32.1811 21.7698C32.1656 21.7377 32.1314 21.7218 32.1003 21.7324C32.044 21.7529 31.9866 21.769 31.9279 21.7807C31.8741 21.7988 31.8153 21.792 31.7649 21.7619C31.4787 21.4856 31.1975 21.2032 30.9213 20.9152L30.8895 20.8907C30.8477 20.8674 30.8061 20.8439 30.7646 20.8198C30.6481 20.7822 30.5512 20.6911 30.4992 20.5703C30.4831 20.5462 30.4737 20.5176 30.4718 20.488C30.474 20.4422 30.4759 20.3963 30.4775 20.3504C30.4977 20.2244 30.4678 20.0933 30.3954 19.9897C30.3828 19.9788 30.3706 19.9675 30.359 19.9556C30.3462 19.9439 30.3377 19.9276 30.335 19.9098C30.3253 19.8125 30.3613 19.7179 30.4303 19.6586C30.5491 19.5682 30.6702 19.4816 30.7935 19.3992C30.9754 19.3454 31.1648 19.325 31.3544 19.3389C31.419 19.3473 31.4821 19.368 31.5409 19.3998C31.5542 19.4078 31.5638 19.4216 31.5672 19.4377C31.5685 19.4434 31.5676 19.4495 31.5649 19.4545C31.5614 19.4607 31.5564 19.4657 31.5505 19.4687C31.494 19.4842 31.4368 19.4954 31.3788 19.5025C31.2194 19.4906 31.0659 19.5595 30.9625 19.6893C30.9398 19.7245 30.9462 19.7735 30.977 19.8021C31.0052 19.8275 31.0337 19.8527 31.0624 19.8771C31.1168 19.9244 31.1384 20.0036 31.1164 20.0738C31.0841 20.1484 31.0468 20.2203 31.0051 20.2888C30.9825 20.3358 30.9986 20.3952 31.0415 20.4226C31.1115 20.4681 31.1819 20.5132 31.2524 20.5577C31.4716 20.7622 31.6825 20.9772 31.8843 21.2024C31.9017 21.22 31.9261 21.2265 31.9483 21.2196C32.0371 21.1848 32.0996 21.0983 32.1106 20.9953C32.107 20.907 32.0937 20.8193 32.0713 20.7336C31.9793 20.5141 31.9325 20.2763 31.9341 20.0375C31.9187 19.9481 31.9592 19.8601 32.0334 19.822C32.0511 19.8125 32.0683 19.8021 32.0848 19.7903C32.1386 19.7392 32.1767 19.6713 32.1944 19.5951C32.2209 19.4818 32.2924 19.3887 32.3898 19.3414C32.4869 19.2941 32.5996 19.2973 32.6969 19.3504C32.7313 19.3798 32.7635 19.412 32.7932 19.4468C32.8115 19.4713 32.8388 19.4856 32.8671 19.4858C33.1557 19.5194 33.4098 19.72 33.5322 20.0109C33.5355 20.0317 33.5404 20.0524 33.5468 20.0724C33.5567 20.0992 33.573 20.1228 33.5939 20.1405C33.6233 20.1654 33.6468 20.198 33.662 20.235C33.6767 20.2624 33.6872 20.2921 33.6931 20.3231C33.6957 20.3369 33.6918 20.3513 33.6827 20.3612C33.6787 20.3662 33.673 20.3698 33.6668 20.3708C33.6606 20.3719 33.6544 20.3706 33.649 20.3672L33.5947 20.3186C33.4536 20.143 33.2825 19.9995 33.0913 19.8967C33.0553 19.8799 33.0142 19.8913 32.9911 19.9248C32.981 19.943 32.9725 19.9621 32.9661 19.9822C32.9483 20.0392 32.9095 20.085 32.8591 20.1088L32.819 20.1173C32.7423 20.1293 32.6717 20.1677 32.617 20.2265C32.5973 20.2479 32.5869 20.2774 32.5885 20.3081C32.5919 20.3492 32.5987 20.3897 32.6087 20.4296C32.6578 20.5572 32.662 20.6991 32.62 20.8269C32.5512 20.9502 32.5274 21.0984 32.5531 21.2426C32.562 21.3175 32.6204 21.3751 32.6892 21.3766C32.8063 21.3492 32.9194 21.3058 33.0258 21.2474C33.064 21.2299 33.1052 21.2214 33.147 21.2225L33.1893 21.2384C33.3051 21.3055 33.442 21.3072 33.5555 21.2422C33.6829 21.1195 33.8372 21.0349 34.0043 20.9957C34.0556 20.9726 34.1153 20.9823 34.1599 21.0212C34.1927 21.0588 34.2243 21.0976 34.2546 21.1375C34.2743 21.1584 34.3005 21.17 34.3273 21.1694L34.4397 21.173C34.6976 21.2693 34.8758 21.533 34.8828 21.8292C34.9256 21.9739 34.9261 22.1283 34.8842 22.2706C34.8798 22.2819 34.8713 22.29 34.8606 22.2933C34.8573 22.2935 34.8541 22.2926 34.8514 22.2904C34.8468 22.2869 34.8427 22.2823 34.8397 22.2769L34.8203 22.2295C34.7525 21.984 34.606 21.7714 34.4083 21.6312C34.387 21.617 34.3616 21.6134 34.3383 21.6217C34.315 21.6298 34.2967 21.649 34.2879 21.6739C34.2632 21.7379 34.2348 21.8002 34.2031 21.8603C34.1664 21.9007 34.1152 21.9216 34.0626 21.9178C33.9588 21.9105 33.8571 21.8772 33.7657 21.8205C33.7263 21.7991 33.6835 21.7866 33.6402 21.7835L33.6016 21.7954C33.5244 21.8209 33.4439 21.8335 33.3626 21.8327C33.2404 21.7963 33.1148 21.7778 32.9889 21.7773C32.9551 21.7728 32.921 21.7736 32.8876 21.7797C32.8586 21.7841 32.8378 21.8118 32.8393 21.844C32.8439 21.862 32.8531 21.8783 32.8661 21.8909C32.9633 21.9916 33.0765 22.0718 33.1997 22.1272C33.4067 22.1738 33.5913 22.3071 33.7134 22.4982C33.7511 22.644 33.8003 22.7864 33.8608 22.9231C33.8832 22.9807 33.9317 23.0212 33.9878 23.0298C34.1052 23.0393 34.2206 23.0701 34.3297 23.1208C34.3532 23.1329 34.3709 23.1554 34.379 23.1822C34.4043 23.3453 34.4292 23.5084 34.4539 23.6716C34.4598 23.7292 34.4294 23.783 34.3802 23.8022C34.1884 23.8771 34.017 24.0011 33.8793 24.1638C33.7992 24.2233 33.745 24.3161 33.7285 24.4215C33.7259 24.6028 33.7147 24.7832 33.6949 24.9626L33.7134 25.0492C33.7636 25.2132 33.8379 25.3677 33.9331 25.5067C33.972 25.5629 33.9928 25.631 33.9921 25.7007C33.9861 25.7283 33.9681 25.7508 33.9441 25.7615C33.863 25.796 33.7912 25.8515 33.7348 25.9231C33.7262 25.9359 33.7216 25.9515 33.7216 25.9675C33.7237 25.9879 33.734 26.0065 33.7494 26.0183C33.7651 26.0302 33.7844 26.0339 33.8024 26.0289C33.8864 26.005 33.9719 25.987 34.0583 25.9753C34.085 25.9714 34.1124 25.9807 34.1333 26.0002C34.1921 26.0585 34.231 26.137 34.2435 26.2215C34.2438 26.2589 34.2455 26.2964 34.2491 26.3334C34.2517 26.3528 34.2628 26.3699 34.2786 26.3794C34.2943 26.3891 34.3133 26.3902 34.3295 26.3825C34.4961 26.2775 34.6806 26.2095 34.8729 26.1824C35.0196 26.1604 35.1643 26.1257 35.3053 26.0784C35.3501 26.0672 35.39 26.0403 35.4193 26.0021C35.5194 25.8158 35.6439 25.6475 35.7892 25.502C35.9916 25.3467 36.2006 25.2017 36.4157 25.0678C36.6434 24.9618 36.7591 24.6846 36.6859 24.4204C36.6142 24.2893 36.5774 24.1396 36.5793 23.9891C36.611 23.8366 36.6384 23.6834 36.6615 23.5291L36.642 23.4429C36.6069 23.3411 36.564 23.2425 36.5138 23.1484L36.4859 23.1088C36.4708 23.0831 36.4617 23.0538 36.4599 23.0236C36.4585 22.9631 36.4581 22.9029 36.4586 22.8425C36.4489 22.6648 36.4417 22.487 36.4372 22.3091L36.4399 22.2623C36.4475 22.2169 36.4722 22.1775 36.5084 22.1543C36.5999 22.0502 36.7418 22.0194 36.8665 22.0769C36.9505 22.1448 37.053 22.1785 37.1557 22.1717C37.3782 22.1186 37.6001 22.0636 37.8214 22.0062C37.9151 21.9801 38.0146 21.9849 38.1074 22.0198C38.2105 22.1104 38.2678 22.2494 38.2602 22.3918L38.265 22.4359L38.3109 22.5178C38.4757 22.7504 38.5666 23.034 38.5698 23.3245C38.5766 23.3646 38.5698 23.4056 38.551 23.4394C38.5477 23.444 38.543 23.4467 38.5378 23.447C38.5333 23.4475 38.5287 23.4453 38.5257 23.4416C38.5122 23.4198 38.5004 23.3968 38.4904 23.3732C38.4496 23.285 38.3986 23.2031 38.3384 23.1293L38.3177 23.1061L38.2918 23.0474C38.2473 22.9115 38.1713 22.7898 38.0712 22.6947C38.0575 22.6811 38.0377 22.6786 38.0219 22.6883C38.0071 22.6971 37.9955 22.7108 37.9883 22.7273C37.9734 22.7552 37.9583 22.7829 37.9427 22.8104C37.927 22.8386 37.8929 22.8471 37.8664 22.8295C37.8502 22.8211 37.8345 22.8113 37.8196 22.8001C37.7829 22.7675 37.7367 22.7511 37.6902 22.7537C37.5169 22.7848 37.3395 22.7846 37.1646 22.7532C37.1134 22.7365 37.0597 22.7334 37.0078 22.7436C36.9815 22.7488 36.9598 22.7684 36.9505 22.7958C36.9413 22.8315 36.9409 22.869 36.9492 22.9053C36.9939 23.0383 37.0546 23.1642 37.1297 23.2802C37.1444 23.3067 37.1516 23.3374 37.1499 23.3678C37.1435 23.4748 37.1261 23.5804 37.0984 23.6826C37.0833 23.7176 37.0731 23.7551 37.0681 23.7938C37.066 23.8073 37.0691 23.8215 37.0761 23.8331C37.0785 23.8366 37.0815 23.8392 37.0848 23.8414C37.0913 23.8457 37.0977 23.8488 37.1046 23.8519C37.1265 23.8589 37.15 23.8549 37.1686 23.8413L37.4608 23.6431C37.5182 23.598 37.5922 23.585 37.6611 23.6079C37.7653 23.6647 37.8632 23.7358 37.9518 23.8193C37.9736 23.8363 37.9984 23.8483 38.0244 23.8543C38.2108 23.8502 38.3972 23.8498 38.5839 23.8538C38.6268 23.8566 38.6672 23.879 38.6953 23.9154C38.7225 23.9765 38.7324 24.0445 38.724 24.1106C38.7156 24.155 38.7195 24.2016 38.7352 24.2446C38.8621 24.4489 38.9354 24.6865 38.9469 24.9304C38.9613 25.0306 38.9444 25.1318 38.8988 25.2179C38.8961 25.2218 38.8919 25.2245 38.8874 25.2252C38.8837 25.2255 38.8801 25.2235 38.8778 25.2202L38.8644 25.1805C38.8366 24.9971 38.7791 24.8192 38.6945 24.6563C38.6716 24.5785 38.6144 24.518 38.5426 24.4954C38.5293 24.4926 38.5158 24.4951 38.5042 24.5022C38.469 24.5271 38.4345 24.5529 38.4005 24.5794C38.3871 24.5901 38.3703 24.5944 38.3536 24.5918C38.3016 24.5753 38.2545 24.5433 38.218 24.4993C38.1955 24.4689 38.1729 24.4388 38.15 24.409C38.1317 24.3837 38.101 24.3741 38.074 24.3852C38.0331 24.4044 37.9896 24.4169 37.945 24.4223C37.9048 24.421 37.8658 24.4044 37.8347 24.3751C37.725 24.2634 37.5772 24.2092 37.4309 24.2269C37.3513 24.2244 37.2858 24.291 37.2823 24.3782C37.2788 24.467 37.2765 24.5559 37.2756 24.6448C37.2631 24.7186 37.2971 24.7943 37.3591 24.8297C37.5075 24.8863 37.6489 24.9647 37.7793 25.0621L37.8051 25.0825C37.8292 25.0962 37.8564 25.1019 37.8829 25.0981C37.9643 25.0925 38.0462 25.0905 38.1279 25.0915C38.3019 25.0953 38.4591 25.2148 38.5244 25.3932C38.5446 25.4347 38.5475 25.4833 38.532 25.526C38.5042 25.587 38.4703 25.6442 38.4311 25.6967C38.4182 25.7193 38.4118 25.7453 38.4124 25.7722C38.4694 26.0678 38.4225 26.3725 38.2815 26.6257C38.2685 26.6451 38.2501 26.6597 38.2293 26.6672L38.2113 26.6709C38.201 26.6692 38.1926 26.6608 38.1899 26.6498C38.1847 26.6335 38.1823 26.6165 38.1828 26.5993C38.2245 26.384 38.2158 26.159 38.1578 25.9453C38.1421 25.8781 38.0867 25.8302 38.0239 25.8295C37.9742 25.8347 37.9247 25.8424 37.8758 25.8525C37.8132 25.8718 37.7448 25.8546 37.6948 25.8067C37.6321 25.7173 37.5653 25.6312 37.495 25.5492C37.3624 25.3648 37.146 25.2786 36.941 25.3282C36.8657 25.36 36.7881 25.386 36.7092 25.4059C36.6926 25.4105 36.676 25.416 36.6601 25.4229C36.6507 25.4272 36.6416 25.4324 36.6335 25.4391C36.5719 25.5015 36.5222 25.5769 36.4873 25.661C36.397 25.9505 36.2285 26.201 36.004 26.3803C35.9216 26.4229 35.8313 26.446 35.739 26.447C35.7118 26.4504 35.6866 26.4642 35.6681 26.4859C35.6417 26.5192 35.6225 26.559 35.6123 26.6021C35.4551 27.188 35.0753 27.6655 34.5679 27.9148C34.5312 27.9269 34.4983 27.9502 34.4728 27.9817C34.4467 28.0069 34.438 28.0475 34.4512 28.0834C34.465 28.122 34.4763 28.1614 34.4853 28.2012C34.5401 28.3606 34.5393 28.5346 34.4832 28.69C34.4661 28.7566 34.4316 28.8162 34.3842 28.8612C34.3506 28.8813 34.3076 28.8676 34.2877 28.8305C34.2044 28.686 34.0856 28.5693 33.9456 28.4947C33.9378 28.4917 33.9296 28.4908 33.9213 28.4921C33.9163 28.4926 33.9117 28.4952 33.9086 28.4997C33.9009 28.5095 33.8981 28.5233 33.9018 28.5363C33.9028 28.5394 33.9039 28.5428 33.9055 28.5461C33.9118 28.5582 33.9182 28.5702 33.9251 28.5818C34.0993 28.8358 34.1909 29.1447 34.1847 29.4575C34.1271 29.6751 34.0331 29.8777 33.9073 30.0555C33.8578 30.1398 33.7912 30.2102 33.7125 30.2614C33.6961 30.2719 33.6762 30.2743 33.6577 30.2679C33.6392 30.2616 33.6238 30.2473 33.615 30.228C33.5681 30.0821 33.5258 29.9344 33.4882 29.7854C33.4674 29.7051 33.4202 29.6349 33.3557 29.589C33.3409 29.5786 33.3226 29.5761 33.3063 29.5822C33.2898 29.5882 33.2772 29.6023 33.2718 29.6203C33.2557 29.6698 33.2643 29.7257 33.2942 29.7683C33.4498 29.9952 33.5006 30.2859 33.4314 30.5533C33.3192 30.8424 33.1238 31.0816 32.8742 31.2353C32.8001 31.2924 32.7185 31.3379 32.6321 31.37C32.6186 31.374 32.6039 31.3719 32.5915 31.3641C32.5792 31.3559 32.5702 31.343 32.5666 31.3278C32.5547 31.1751 32.5166 31.0257 32.4545 30.8866C32.4487 30.8576 32.4377 30.8298 32.4221 30.8049C32.4099 30.7906 32.3904 30.7878 32.3759 30.7982C32.3452 30.8228 32.329 30.8633 32.3329 30.9053C32.3435 30.9761 32.353 31.0472 32.3613 31.1185C32.3902 31.2554 32.3778 31.3977 32.3258 31.5236C32.1172 31.8079 31.8228 32.0006 31.4931 32.0693C31.3811 32.1296 31.2525 32.1445 31.1294 32.111C31.0978 32.0977 31.0788 32.0617 31.0838 32.0256C31.0895 31.9766 31.1034 31.9296 31.1246 31.8861C31.1962 31.7548 31.1876 31.5867 31.1026 31.4597C31.093 31.446 31.0786 31.437 31.063 31.4356C31.0471 31.4342 31.0318 31.4404 31.0209 31.4524C31.0103 31.4684 31.0035 31.4873 31.0011 31.5068L30.9931 31.5959C30.972 31.8147 30.8788 32.0158 30.731 32.1612C30.495 32.2671 30.2411 32.3206 29.9836 32.3193C29.8052 32.3353 29.6246 32.3075 29.4549 32.238C29.4276 32.2234 29.4035 32.2016 29.3855 32.1749C29.3752 32.153 29.3769 32.1269 29.3901 32.1076C29.4667 32.0098 29.5346 31.904 29.5934 31.792C29.606 31.7694 29.6088 31.7416 29.6011 31.7156C29.5935 31.6898 29.5763 31.6688 29.5537 31.6571C29.5332 31.6475 29.5096 31.6544 29.4969 31.6738C29.4799 31.6947 29.4656 31.718 29.4543 31.7433C29.3449 32.0189 29.1047 32.2024 28.8287 32.2219C28.5725 32.1326 28.316 32.0451 28.0593 31.9587C28.0209 31.9478 27.9842 31.9297 27.9508 31.9054C27.9293 31.8904 27.9199 31.8615 27.9276 31.8356C27.9352 31.8133 27.9465 31.7923 27.9608 31.7745C28.0091 31.7238 28.0465 31.6622 28.0708 31.5933C28.0788 31.5681 28.0754 31.5399 28.0617 31.5173C28.048 31.4944 28.0255 31.4797 28.0009 31.4777C27.9676 31.4829 27.9359 31.4961 27.9081 31.5162C27.8104 31.5998 27.6874 31.6407 27.5619 31.6318C27.4505 31.5924 27.3452 31.5347 27.249 31.4607C27.0577 31.3762 26.8796 31.2573 26.7228 31.1093C26.6647 31.0637 26.6304 30.9896 26.6322 30.9123L26.642 30.8668C26.6568 30.8303 26.6711 30.7931 26.6847 30.7558C26.693 30.7354 26.6895 30.7107 26.6753 30.6938C26.6594 30.6793 26.6386 30.6734 26.6187 30.6775C26.5259 30.7002 26.4275 30.6774 26.3488 30.6151C26.0274 30.4006 25.7476 30.1174 25.5265 29.7833C25.2822 29.3477 25.0488 28.9053 24.8265 28.4561C24.705 28.1468 24.5658 27.8459 24.4098 27.5551C24.3946 27.529 24.3728 27.5085 24.3472 27.4955C24.3354 27.4898 24.3221 27.4912 24.312 27.4992C24.3006 27.5093 24.2919 27.5225 24.2866 27.5376C24.2582 27.6426 24.2076 27.7383 24.1387 27.8171C24.1128 27.8504 24.0747 27.8694 24.0342 27.8686C23.8305 27.813 23.6203 27.7984 23.414 27.8252C23.3961 27.8265 23.3781 27.8232 23.3616 27.8155C23.3304 27.7953 23.3019 27.7703 23.2774 27.7409C23.218 27.6607 23.1455 27.5935 23.0639 27.5426C22.9878 27.4851 22.8886 27.483 22.8133 27.5372C22.7381 27.5914 22.7018 27.6912 22.7218 27.7893C22.7629 27.9003 22.8265 27.9999 22.9077 28.0805C23.0516 28.1594 23.1998 28.2282 23.3511 28.2871C23.5988 28.3552 23.8 28.5587 23.882 28.8242C23.9449 29.0829 24.0135 29.3399 24.0885 29.595C24.1625 29.8595 24.2636 30.1149 24.3899 30.3556C24.6078 30.744 24.8354 31.1257 25.0726 31.5004C25.1126 31.5532 25.1709 31.5854 25.2328 31.5892C25.2859 31.5763 25.3387 31.5625 25.3912 31.5479C25.416 31.5418 25.4393 31.5303 25.4599 31.5143L25.4783 31.4823C25.4906 31.4239 25.475 31.3619 25.4367 31.3174C25.3646 31.2338 25.3052 31.1377 25.2615 31.0338C25.2354 30.9783 25.2477 30.9116 25.2907 30.8735C25.3064 30.8656 25.3228 30.8598 25.3395 30.8559C25.3748 30.849 25.4079 30.8332 25.436 30.8093C25.4703 30.7698 25.5066 30.7329 25.5451 30.6983C25.589 30.6571 25.6487 30.6419 25.706 30.6573C25.7244 30.6661 25.7405 30.6793 25.7537 30.6958C25.8888 30.7941 26.0366 30.8686 26.1918 30.9166C26.3758 31.0563 26.5319 31.2364 26.6493 31.445C26.7883 31.6535 26.891 31.8876 26.9524 32.1349C26.9563 32.149 26.9565 32.164 26.9531 32.1782C26.9518 32.1835 26.9468 32.1868 26.9416 32.1852C26.9313 32.1826 26.9218 32.1767 26.9142 32.1679C26.8851 32.1271 26.8574 32.0854 26.8308 32.0426C26.6475 31.7606 26.4183 31.5168 26.1555 31.3246C26.1226 31.3004 26.0803 31.3002 26.0481 31.3234C26.0135 31.3606 25.9971 31.4141 26.0039 31.4677C26.0242 31.5335 26.0433 31.5999 26.061 31.6666C26.0809 31.7176 26.0778 31.7752 26.0534 31.8225C25.966 31.9356 25.8429 32.0087 25.7074 32.0284C25.6425 32.036 25.5832 32.0699 25.5412 32.1235C25.5193 32.1507 25.5155 32.1903 25.5322 32.223C25.5453 32.249 25.5596 32.2741 25.575 32.2985C25.5927 32.319 25.6176 32.3303 25.6428 32.3292C25.8239 32.3034 26.0092 32.3436 26.1707 32.4434C26.2097 32.464 26.2381 32.5029 26.2476 32.5487C26.2687 32.6036 26.2723 32.6638 26.2583 32.7201C26.2463 32.7437 26.2276 32.7624 26.205 32.7733C26.151 32.791 26.0962 32.8062 26.0406 32.8183C26.0145 32.8238 25.9917 32.8411 25.9781 32.8658C25.9641 32.8909 25.9605 32.9212 25.9679 32.9496C25.9927 33.0154 26.0058 33.0857 26.0061 33.1562C25.954 33.4284 26.0218 33.7154 26.1892 33.9319C26.3134 34.0738 26.437 34.2162 26.5599 34.3592C26.5701 34.3742 26.5764 34.392 26.5781 34.4105C26.5788 34.4239 26.5725 34.4363 26.5615 34.4423C26.548 34.4465 26.5334 34.4445 26.521 34.4367C26.4187 34.376 26.3153 34.3178 26.2107 34.262C25.9245 34.1561 25.7071 33.8932 25.6396 33.5717L25.6312 33.5276C25.6181 33.4866 25.5887 33.4537 25.5513 33.4386L25.5107 33.4303C25.4099 33.4164 25.3177 33.3583 25.2549 33.2694C25.2277 33.1999 25.2181 33.124 25.2272 33.05C25.2401 32.9589 25.2183 32.8643 25.1669 32.7891C25.1241 32.7222 25.0615 32.673 24.99 32.651L24.9706 32.6499C24.9578 32.6535 24.9474 32.6634 24.9428 32.6769C24.9354 32.6984 24.9301 32.7207 24.9274 32.7437C24.9113 32.9275 24.8133 33.0882 24.6655 33.1734C24.6401 33.1879 24.6099 33.1906 24.5818 33.1809C24.4683 33.1303 24.3526 33.0856 24.2354 33.0472C24.2216 33.0438 24.2072 33.0425 24.193 33.0435C24.1806 33.0443 24.168 33.0473 24.1565 33.0529C24.1249 33.0681 24.0958 33.0894 24.0703 33.1151C24.0369 33.146 24.0226 33.1956 24.0339 33.2431L24.0621 33.3619C24.0725 33.3906 24.0751 33.4215 24.0692 33.4511ZM28.8693 15.6228C28.852 15.6205 28.8361 15.612 28.8235 15.5987C28.8146 15.5897 28.8117 15.5752 28.8169 15.5631C28.8275 15.5395 28.8472 15.5226 28.8708 15.5171C28.9076 15.5101 28.9447 15.5056 28.9819 15.5036C29.1664 15.5388 29.352 15.5639 29.5384 15.5788C29.552 15.5791 29.565 15.5849 29.5755 15.5953L29.5897 15.6079C29.6016 15.6247 29.602 15.6477 29.5905 15.664L29.5543 15.6963C29.475 15.7613 29.3934 15.8229 29.3098 15.8813C29.2954 15.8899 29.2785 15.8927 29.2621 15.8894C29.2253 15.8776 29.1905 15.8583 29.1602 15.8323C29.0804 15.7496 28.9895 15.6811 28.8907 15.6292C28.8838 15.626 28.8765 15.6237 28.8693 15.6228ZM27.6719 17.3784C27.6898 17.3601 27.7114 17.347 27.7351 17.3397C27.7476 17.3332 27.7622 17.3328 27.7753 17.3385C27.7885 17.3445 27.7991 17.3559 27.8045 17.3702C27.8097 17.3861 27.8106 17.403 27.8067 17.4189C27.7863 17.5196 27.7626 17.6192 27.7351 17.7176C27.722 17.8005 27.6679 17.8672 27.5944 17.891C27.4541 17.9222 27.3121 17.9443 27.1689 17.9573C27.1545 17.9595 27.1394 17.9552 27.1275 17.9456C27.1191 17.9343 27.1162 17.9195 27.1196 17.906C27.1228 17.8867 27.1298 17.8686 27.1401 17.8527C27.2633 17.7163 27.394 17.5883 27.5316 17.4695C27.5785 17.4393 27.6253 17.4088 27.6719 17.3784ZM36.4015 16.791C36.4013 16.7771 36.4037 16.7635 36.4086 16.751C36.4188 16.7361 36.4366 16.7305 36.4529 16.737C36.5188 16.771 36.5808 16.8134 36.638 16.8633C36.7773 16.9733 36.9141 17.0868 37.0485 17.2041C37.1098 17.233 37.1649 17.2762 37.21 17.3303C37.2141 17.3367 37.2164 17.3443 37.2164 17.352C37.2167 17.3597 37.2147 17.367 37.2108 17.3732C37.1058 17.4929 36.9578 17.5557 36.8043 17.5461C36.5973 17.4902 36.4361 17.3078 36.3915 17.0797C36.3789 16.9831 36.3822 16.8854 36.4015 16.791ZM27.5267 19.7934C27.5297 19.7804 27.5349 19.7683 27.5421 19.7575C27.5465 19.7509 27.555 19.7495 27.5611 19.7544C27.5705 19.762 27.5781 19.772 27.5829 19.7836C27.6601 19.9859 27.748 20.1834 27.8464 20.3749C27.865 20.4013 27.8729 20.4345 27.8683 20.4668C27.8637 20.4992 27.8469 20.5274 27.8219 20.545L27.6526 20.6876C27.6077 20.7377 27.5511 20.7735 27.4888 20.7916C27.4594 20.7995 27.4283 20.7836 27.4143 20.7534C27.4082 20.7363 27.4043 20.7182 27.4028 20.7001C27.4262 20.4062 27.4644 20.1144 27.5172 19.8261L27.5267 19.7934ZM28.7973 22.3505C28.7872 22.3136 28.781 22.2756 28.7791 22.2371C28.7792 22.2293 28.7813 22.2215 28.785 22.2148C28.7883 22.2087 28.793 22.2038 28.799 22.2004C28.8123 22.1927 28.8281 22.1908 28.843 22.1951C28.931 22.2223 29.0136 22.2691 29.0854 22.3321C29.1186 22.3475 29.153 22.3594 29.1881 22.3678C29.207 22.3717 29.2239 22.3839 29.2347 22.4014C29.2457 22.4192 29.2497 22.4407 29.2458 22.461C29.199 22.6088 29.1482 22.755 29.0934 22.8992C29.0871 22.9126 29.077 22.9235 29.0646 22.9299C29.0593 22.9325 29.0533 22.9332 29.0474 22.9315C29.0399 22.9295 29.0329 22.9255 29.0269 22.9197C28.9669 22.8378 28.9197 22.7455 28.8876 22.6471C28.8514 22.5505 28.8212 22.4514 28.7973 22.3505ZM30.9825 24.2735C30.9781 24.2828 30.9721 24.291 30.9651 24.2983C30.9611 24.3022 30.956 24.3045 30.9504 24.305C30.9366 24.3052 30.9236 24.2973 30.9163 24.2842C30.8427 24.1324 30.7762 23.9772 30.7171 23.8183C30.7107 23.8025 30.7074 23.7853 30.7077 23.7683C30.7085 23.7576 30.716 23.7492 30.7258 23.7479C30.7396 23.7472 30.7534 23.7502 30.7658 23.7571C30.8632 23.8231 30.951 23.9047 31.0258 23.9998C31.0353 24.0142 31.0404 24.0314 31.0405 24.0488C31.04 24.0721 31.0363 24.0947 31.0296 24.1165C31.0154 24.1694 30.9997 24.2217 30.9825 24.2735ZM32.4317 25.3545C32.4641 25.4036 32.4585 25.4707 32.4185 25.5105C32.4148 25.5142 32.4109 25.5177 32.4069 25.5209C32.3952 25.5299 32.3832 25.5382 32.3712 25.5465C32.3623 25.5525 32.3517 25.5552 32.3413 25.5538C32.3335 25.5531 32.3265 25.5481 32.3223 25.5409C32.3147 25.5263 32.3086 25.5112 32.3043 25.4952C32.2978 25.4249 32.2977 25.3542 32.3037 25.2845C32.3036 25.2683 32.3078 25.2526 32.3155 25.2392C32.3195 25.2339 32.3258 25.2314 32.332 25.2328C32.3425 25.2347 32.3521 25.2401 32.3601 25.2481C32.374 25.2637 32.3866 25.2808 32.3975 25.2993C32.4091 25.3172 32.4203 25.3358 32.4317 25.3545Z" fill="white" fill-opacity="0.7"/>
</g>
<defs>
<filter id="filter0_d_108_262" x="5.82471" y="13.1616" width="39.2134" height="29.6937" filterUnits="userSpaceOnUse" color-interpolation-filters="sRGB">
<feFlood flood-opacity="0" result="BackgroundImageFix"/>
<feColorMatrix in="SourceAlpha" type="matrix" values="0 0 0 0 0 0 0 0 0 0 0 0 0 0 0 0 0 0 127 0" result="hardAlpha"/>
<feOffset dy="4"/>
<feGaussianBlur stdDeviation="2"/>
<feComposite in2="hardAlpha" operator="out"/>
<feColorMatrix type="matrix" values="0 0 0 0 0 0 0 0 0 0 0 0 0 0 0 0 0 0 0.25 0"/>
<feBlend mode="normal" in2="BackgroundImageFix" result="effect1_dropShadow_108_262"/>
<feBlend mode="normal" in="SourceGraphic" in2="effect1_dropShadow_108_262" result="shape"/>
</filter>
</defs>
</svg>
