<svg width="90" height="249" viewBox="0 0 90 249" fill="none" xmlns="http://www.w3.org/2000/svg">
<path d="M34.4027 214.134C33.3398 218.503 31.6566 222.65 29.3661 226.519C29.1449 226.897 28.5462 226.923 28.2252 226.676C27.8434 226.385 27.8434 225.916 28.069 225.535C30.1947 221.938 31.7954 218.012 32.7845 213.952C32.8887 213.522 33.2053 213.184 33.6825 213.232C34.0773 213.279 34.5068 213.709 34.4027 214.134Z" fill="#B85954" fill-opacity="0.53"/>
<path d="M28.095 226.853C27.6612 226.524 27.5744 225.951 27.8824 225.43C30.0081 221.83 31.5871 217.951 32.5719 213.908C32.7151 213.318 33.1619 212.971 33.6998 213.023C33.9861 213.054 34.2768 213.232 34.4547 213.488C34.6108 213.709 34.6629 213.956 34.6065 214.19C33.5393 218.576 31.8344 222.762 29.5482 226.636C29.4268 226.845 29.2099 226.988 28.9452 227.04C28.7327 227.083 28.5071 227.057 28.3119 226.983C28.2381 226.944 28.1644 226.901 28.095 226.853ZM33.6608 213.453C33.1792 213.405 33.0317 213.865 32.997 214.008C31.9993 218.095 30.4072 222.012 28.2598 225.647C28.108 225.908 28.0516 226.268 28.3639 226.506C28.4897 226.606 28.6936 226.645 28.8758 226.61C28.9582 226.593 29.1057 226.545 29.1882 226.411C31.4527 222.576 33.1402 218.429 34.1987 214.086C34.2334 213.939 34.1597 213.804 34.1119 213.739C34.0339 213.626 33.9167 213.54 33.7996 213.492C33.7475 213.47 33.7042 213.457 33.6608 213.453Z" fill="#B85954" fill-opacity="0.53"/>
<path d="M54.6617 72.2861C54.627 76.7804 53.9416 81.2053 52.6054 85.4957C52.4753 85.9122 51.9026 86.077 51.5339 85.9122C51.0958 85.717 50.9873 85.2615 51.1174 84.8407C52.3581 80.8539 53.0175 76.6633 53.0479 72.4857C53.0522 72.0432 53.2822 71.6441 53.755 71.579C54.1455 71.527 54.666 71.848 54.6617 72.2861Z" fill="#B85954" fill-opacity="0.53"/>
<path d="M51.4426 86.1118C50.9438 85.8905 50.7269 85.3526 50.9091 84.7756C52.1541 80.7846 52.7961 76.646 52.8309 72.4857C52.8352 71.8784 53.1866 71.4359 53.7288 71.3665C54.0152 71.3275 54.3362 71.4359 54.5704 71.6441C54.7743 71.822 54.8828 72.0519 54.8784 72.2905C54.8437 76.8022 54.1496 81.2704 52.8135 85.5652C52.7397 85.7951 52.5662 85.986 52.319 86.0944C52.1194 86.1855 51.8982 86.2159 51.6899 86.1855C51.6032 86.1682 51.5207 86.1465 51.4426 86.1118ZM53.7809 71.7916C53.3037 71.8567 53.2603 72.3382 53.2603 72.4857C53.23 76.6937 52.5749 80.8713 51.3212 84.9014C51.2301 85.1878 51.2605 85.5522 51.6162 85.7127C51.7637 85.7778 51.9676 85.7734 52.1368 85.6953C52.2148 85.6606 52.3493 85.5825 52.3927 85.4307C53.7158 81.175 54.4056 76.7545 54.4403 72.2819C54.4403 72.13 54.3405 72.0172 54.2754 71.9608C54.1713 71.8697 54.0412 71.809 53.911 71.7916C53.872 71.7873 53.8243 71.7873 53.7809 71.7916Z" fill="#B85954" fill-opacity="0.53"/>
<path d="M47.5772 143.076C47.1564 147.553 46.0893 151.899 44.3887 156.06C44.2239 156.467 43.6382 156.576 43.2825 156.381C42.8617 156.146 42.7923 155.687 42.9615 155.274C44.5449 151.409 45.56 147.292 45.9504 143.132C45.9938 142.689 46.2541 142.312 46.7356 142.29C47.1304 142.273 47.6206 142.637 47.5772 143.076Z" fill="#B85954" fill-opacity="0.53"/>
<path d="M43.1831 156.572C42.7059 156.307 42.5367 155.752 42.7667 155.196C44.3501 151.327 45.3479 147.262 45.7383 143.115C45.7947 142.507 46.1851 142.1 46.7274 142.078C47.0137 142.065 47.326 142.199 47.5429 142.425C47.7295 142.62 47.8163 142.859 47.7946 143.097C47.3738 147.592 46.2936 151.982 44.593 156.142C44.5019 156.368 44.311 156.541 44.0551 156.628C43.8512 156.702 43.6256 156.71 43.4217 156.663C43.335 156.641 43.2569 156.611 43.1831 156.572ZM46.7447 142.507C46.2632 142.529 46.1808 143.006 46.1678 143.154C45.773 147.34 44.7622 151.448 43.1658 155.357C43.053 155.635 43.0486 155.999 43.3914 156.19C43.5302 156.268 43.7341 156.277 43.9119 156.216C43.99 156.19 44.1332 156.12 44.1896 155.973C45.8771 151.847 46.9443 147.501 47.3608 143.05C47.3738 142.898 47.2827 142.776 47.2263 142.716C47.1308 142.616 47.005 142.546 46.8792 142.516C46.8358 142.512 46.7881 142.507 46.7447 142.507Z" fill="#B85954" fill-opacity="0.53"/>
<path d="M46.3062 151.431L44.5927 151.11C43.5819 150.923 42.9095 149.939 43.096 148.928C43.2826 147.917 44.2673 147.245 45.2781 147.431L46.9917 147.752C48.0024 147.939 48.6748 148.923 48.4883 149.934C48.2974 150.945 47.317 151.622 46.3062 151.431Z" fill="#B85954" fill-opacity="0.53"/>
<path d="M46.2672 151.643L44.5537 151.322C43.4214 151.11 42.6753 150.021 42.8835 148.889C43.0961 147.756 44.1849 147.01 45.3172 147.219L47.0307 147.54C48.163 147.752 48.9091 148.841 48.7009 149.973C48.4927 151.105 47.3995 151.856 46.2672 151.643ZM45.2391 147.648C44.3411 147.483 43.4778 148.073 43.313 148.971C43.1481 149.869 43.7381 150.732 44.6361 150.897L46.3496 151.218C47.2476 151.383 48.1109 150.793 48.2758 149.895C48.4406 148.997 47.8506 148.134 46.9526 147.969L45.2391 147.648Z" fill="#B85954" fill-opacity="0.53"/>
<path d="M53.6941 29.5686C50.2974 29.5686 48.1978 21.8945 48.1978 14.7843C48.1978 7.67414 50.2974 0 53.6941 0C56.9521 0 58.657 7.43988 58.657 14.7843C58.657 22.1288 56.9564 29.5686 53.6941 29.5686ZM53.6941 1.73091C52.4014 1.73091 49.933 6.81519 49.933 14.78C49.933 22.7448 52.4014 27.8291 53.6941 27.8291C54.7917 27.8291 56.9217 23.222 56.9217 14.78C56.9217 6.338 54.7917 1.73091 53.6941 1.73091Z" fill="#B85954" fill-opacity="0.53"/>
<path d="M53.4298 72.0606C33.2662 72.0606 16.8594 59.6882 16.8594 44.4788C16.8594 29.2693 33.2662 16.897 53.4298 16.897C73.5933 16.897 90.0001 29.2693 90.0001 44.4788C90.0001 59.6882 73.5933 72.0606 53.4298 72.0606ZM53.4298 18.0119C33.9819 18.0119 18.1608 29.8853 18.1608 44.4788C18.1608 59.0722 33.9819 70.9457 53.4298 70.9457C72.8776 70.9457 88.6987 59.0722 88.6987 44.4788C88.6987 29.8853 72.8776 18.0119 53.4298 18.0119Z" fill="#B85954" fill-opacity="0.53"/>
<path d="M48.0548 140.646C27.9302 139.401 12.3173 126.04 13.2587 110.861C14.2001 95.6816 31.3356 84.3461 51.4602 85.5911C71.5847 86.8362 87.1976 100.198 86.2563 115.377C85.3149 130.556 68.1837 141.891 48.0548 140.646ZM51.3908 86.7017C31.982 85.5 15.4581 96.3757 14.5558 110.939C13.6535 125.506 28.7154 138.33 48.1242 139.531C67.5329 140.733 84.0568 129.857 84.9592 115.294C85.8615 100.731 70.8039 87.9033 51.3908 86.7017Z" fill="#B85954" fill-opacity="0.53"/>
<path d="M47.9724 141.969C32.1817 140.993 25.6875 131.658 26.9239 111.707C28.1559 91.7513 35.752 83.2919 51.5427 84.268C67.3335 85.2441 73.8276 94.5797 72.5913 114.531C71.3593 134.482 63.7675 142.945 47.9724 141.969ZM51.469 85.5C44.593 85.0749 39.6996 86.4327 36.0643 89.7774C31.544 93.9333 29.0235 101.139 28.3641 111.798C27.7047 122.457 29.3185 129.918 33.2922 134.599C36.4894 138.364 41.1789 140.317 48.0549 140.742C54.9308 141.167 59.8242 139.809 63.4595 136.464C67.9799 132.308 70.5003 125.103 71.1597 114.444C71.8191 103.785 70.2053 96.3237 66.2316 91.6428C63.0301 87.873 58.3406 85.9252 51.469 85.5Z" fill="#B85954" fill-opacity="0.53"/>
<path d="M53.4464 71.9283C39.7041 71.0003 34.0524 62.125 35.1284 43.1576C36.2006 24.186 42.8112 16.1438 56.5536 17.0717C70.2959 17.9997 75.9476 26.8751 74.8716 45.8425C73.7994 64.8099 67.1925 72.8563 53.4464 71.9283ZM56.4894 18.243C50.5054 17.8388 46.2468 19.1297 43.0831 22.3095C39.1491 26.2605 36.9557 33.1109 36.3818 43.2442C35.8079 53.3775 37.2124 60.4712 40.6706 64.9212C43.453 68.5011 47.5342 70.357 53.5182 70.7611C59.5021 71.1653 63.7607 69.8744 66.9245 66.6946C70.8584 62.7436 73.0519 55.8932 73.6258 45.76C74.1996 35.6267 72.7952 28.533 69.337 24.0829C66.5507 20.499 62.4696 18.6472 56.4894 18.243Z" fill="#B85954" fill-opacity="0.53"/>
<path d="M74.811 189.81C76.8093 175.02 62.4922 160.877 42.8329 158.221C23.1736 155.565 5.61658 165.401 3.61827 180.19C1.61995 194.98 15.937 209.123 35.5964 211.779C55.2557 214.435 72.8127 204.599 74.811 189.81Z" fill="#B85954" fill-opacity="0.53"/>
<path d="M35.5219 212.329C15.5405 209.631 0.938383 195.172 2.97296 180.101C5.00754 165.031 22.924 154.966 42.9054 157.665C62.8868 160.363 77.4889 174.822 75.4543 189.893C73.4197 204.968 55.5033 215.032 35.5219 212.329ZM42.7579 158.771C23.4836 156.168 6.21788 165.816 4.26138 180.275C2.30923 194.738 16.3951 208.62 35.6694 211.223C54.9437 213.826 72.2094 204.178 74.1659 189.719C76.1224 175.26 62.0278 161.378 42.7579 158.771Z" fill="#B85954" fill-opacity="0.53"/>
<path d="M35.344 213.644C19.666 211.527 13.8659 201.744 16.5425 181.937C19.2192 162.124 27.4052 154.233 43.0832 156.355C58.7611 158.472 64.5612 168.254 61.8846 188.062C59.208 207.874 51.0219 215.765 35.344 213.644ZM42.9183 157.578C36.0944 156.654 31.1099 157.656 27.2447 160.727C22.4337 164.545 19.4014 171.547 17.9698 182.132C16.5382 192.717 17.6054 200.269 21.232 205.232C24.1473 209.219 28.6849 211.505 35.5088 212.429C42.3327 213.353 47.3172 212.351 51.1824 209.28C55.9934 205.462 59.0258 198.46 60.4573 187.875C61.8889 177.29 60.8217 169.733 57.1951 164.775C54.2799 160.784 49.7422 158.498 42.9183 157.578Z" fill="#B85954" fill-opacity="0.53"/>
<path d="M30.0212 222.086L31.6393 222.728C32.5937 223.11 33.6869 222.637 34.0687 221.682C34.4504 220.728 33.9776 219.635 33.0232 219.253L31.4051 218.611C30.4507 218.229 29.3575 218.702 28.9757 219.656C28.594 220.611 29.0625 221.704 30.0212 222.086Z" fill="#B85954" fill-opacity="0.53"/>
<path d="M28.7716 219.574C29.1968 218.507 30.4114 217.982 31.483 218.407L33.1011 219.049C34.1683 219.474 34.6932 220.689 34.268 221.76C33.8429 222.828 32.6282 223.353 31.5567 222.927L29.9386 222.285C28.8714 221.86 28.3465 220.646 28.7716 219.574ZM31.3225 218.811C30.4765 218.472 29.5135 218.889 29.1751 219.735C28.8367 220.581 29.2532 221.544 30.0991 221.882L31.7172 222.524C32.5631 222.862 33.5262 222.446 33.8646 221.6C34.203 220.754 33.7865 219.791 32.9406 219.453L31.3225 218.811Z" fill="#B85954" fill-opacity="0.53"/>
<path d="M27.045 224.16C27.045 224.16 26.3249 226.693 12.7075 244.085C12.7075 244.085 19.8481 248.783 22.7503 247.867C22.7503 247.867 31.4742 230.229 30.624 225.665C30.624 225.665 29.1447 224.099 27.045 224.16Z" fill="#B85954" fill-opacity="0.53"/>
<path d="M22.3816 234.345C20.2255 238.08 16.9719 241.521 15.6271 245.62C15.5143 245.967 16.0392 246.197 16.152 245.85C17.4968 241.75 20.7504 238.31 22.9065 234.575C23.0887 234.254 22.5638 234.029 22.3816 234.345Z" fill="#B85954" fill-opacity="0.53"/>
<path d="M23.974 234.554C22.3386 238.723 20.4818 242.805 18.4125 246.779C18.2434 247.104 18.7683 247.334 18.9375 247.008C21.0067 243.035 22.8635 238.957 24.4989 234.784C24.6334 234.441 24.1085 234.211 23.974 234.554Z" fill="#B85954" fill-opacity="0.53"/>
<path d="M25.7569 235.287C24.3904 239.582 22.6638 243.724 20.5815 247.72C20.4123 248.045 20.9372 248.275 21.1064 247.95C23.1887 243.954 24.9153 239.811 26.2818 235.517C26.3946 235.165 25.8697 234.935 25.7569 235.287Z" fill="#B85954" fill-opacity="0.53"/>
<path d="M54.1149 80.7194L52.384 80.5502C51.3602 80.4504 50.6054 79.5308 50.7051 78.507C50.8049 77.4832 51.7246 76.7283 52.7484 76.8281L54.4793 76.9973C55.5031 77.0971 56.2579 78.0167 56.1582 79.0405C56.0584 80.0643 55.1387 80.8235 54.1149 80.7194Z" fill="#B85954" fill-opacity="0.53"/>
<path d="M54.0931 80.9363L52.3622 80.7671C51.217 80.6543 50.3754 79.6305 50.4882 78.4853C50.601 77.34 51.6247 76.4984 52.77 76.6112L54.5009 76.7804C55.6462 76.8932 56.4878 77.917 56.375 79.0622C56.2622 80.2075 55.2384 81.0491 54.0931 80.9363ZM52.7266 77.045C51.82 76.9539 51.0087 77.622 50.922 78.5286C50.8309 79.4353 51.4989 80.2465 52.4056 80.3333L54.1365 80.5025C55.0432 80.5936 55.8544 79.9255 55.9412 79.0188C56.0323 78.1122 55.3642 77.3009 54.4575 77.2142L52.7266 77.045Z" fill="#B85954" fill-opacity="0.53"/>
</svg>
