<svg width="101" height="102" viewBox="0 0 101 102" fill="none" xmlns="http://www.w3.org/2000/svg">
<path d="M6.61582 65.7035L7.79183 67.1539L7.20382 65.2682C7.05674 64.3979 6.02781 65.4133 6.61582 65.7035ZM7.93892 64.8332C8.37984 65.5584 8.82109 66.2836 8.82109 67.0088C8.82109 68.0243 9.70326 68.4593 10.438 68.7492C9.40878 67.5889 8.82077 64.3979 7.93892 64.8332ZM64.3929 3.33616C66.892 3.33616 69.2443 3.04596 71.8909 3.62606C78.3596 5.22159 83.7991 8.41234 87.4745 12.9087L97.7658 29.1533C98.2067 33.2144 99.0889 37.7107 98.9418 42.6421C99.9711 42.6421 99.824 41.1917 101 40.9015C99.824 43.8023 99.2357 47.4284 98.9418 51.6346C98.2067 49.3138 98.9418 45.8329 99.0889 43.9474C98.0596 45.543 97.4716 44.3825 97.4716 43.6572C97.6187 42.497 97.0307 42.6418 96.5895 42.2068C94.9722 40.7564 93.9433 39.1609 92.7672 36.6953C93.5023 34.8099 93.6494 32.0541 91.2971 30.6037C90.562 30.1687 89.6798 29.4435 89.2389 28.283C88.6509 26.6875 87.6216 24.802 87.9155 22.3365C88.0625 21.6113 85.7102 23.932 84.3871 22.9166C78.6534 19.0006 72.9198 14.5043 66.0101 10.7331C62.3347 10.7331 59.6885 9.42776 58.3654 7.83223C57.1894 6.38181 58.0712 4.49638 59.8356 4.35128C60.8648 4.35128 62.0408 4.06107 62.923 4.64149C63.0701 4.06138 63.6581 3.33616 64.3929 3.33616ZM49.8385 0L50.1326 0.145105C51.6028 0.435314 52.3379 2.46585 53.9548 1.74063C53.9548 2.75606 54.1019 3.77117 53.8078 4.49638C53.3668 5.6566 52.0434 5.6566 51.0145 5.6566C41.1644 5.07649 35.4308 9.13755 29.4033 12.6185C27.786 13.6339 26.022 14.3591 24.6986 15.6645C18.3769 21.4662 11.4673 26.8326 9.85003 37.5656L8.52693 49.4589C8.37984 50.7643 6.90966 52.0696 7.20382 53.6651L8.23276 60.7721C7.20351 59.7567 6.6155 61.0623 6.90966 61.6425C7.05674 62.0775 7.64475 63.5279 8.52693 62.2226C9.70294 64.3982 10.8793 68.6044 12.4962 70.4898C17.4948 76.2915 23.9635 81.5128 29.2562 86.7344C30.5793 86.4442 31.6086 86.4442 31.9024 85.5738C32.3434 86.4442 31.4615 87.3145 30.7264 87.4596C33.0788 88.91 35.725 90.2153 39.2533 90.5052C43.811 90.7954 48.0744 91.5206 52.0437 92.5361C54.1019 91.956 56.1601 91.6658 58.3654 91.5207C59.1005 91.5207 59.5414 90.3604 60.4236 90.0702L60.5706 88.6198C61.4528 89.9251 61.3057 88.1848 60.7177 87.3145C61.747 88.1848 62.0408 88.91 62.4818 89.4901C62.4818 89.0551 63.6578 87.4596 63.6581 89.345L63.9519 87.4596C64.3929 87.1694 64.5399 89.0551 64.9812 87.7495C65.4221 86.4442 66.3043 87.4593 67.1865 87.0243C66.8923 87.6044 67.0394 88.7649 68.0683 88.0397L69.2447 87.0243C69.9797 88.7649 71.1558 88.0397 71.7438 87.7495C78.2125 83.6884 84.6812 78.9021 90.8558 74.1159L90.7087 76.0013L91.4438 73.6805C92.1789 74.4058 92.7669 73.8257 93.0611 73.3906C93.9433 71.9402 95.1193 70.4898 97.0307 69.1845C94.6783 75.4212 91.8851 80.3526 88.3567 84.4136L86.8865 86.1543C86.8865 87.1697 86.5924 88.475 85.4163 88.6198C84.8283 88.7649 83.652 88.3296 82.7701 89.1999C82.3292 89.78 83.7994 90.9405 82.6231 90.0702C81.5938 89.345 80.5649 90.0702 79.3885 90.3604C78.5064 90.6506 79.9765 91.5206 80.2707 92.1008C80.5649 92.6809 80.8587 93.261 80.7119 93.9865L79.0947 92.2459C77.1836 93.2613 76.0072 95.1467 74.39 96.5971C73.6549 97.1772 73.949 98.1927 73.949 99.0627C72.9198 99.0627 71.7438 98.7725 71.1558 99.3529C70.7148 99.933 70.8616 100.803 70.8616 101.674C69.3914 101.529 69.2443 99.3529 67.9216 99.7879C66.5985 100.078 65.1283 100.223 63.9519 100.948C64.8341 102.689 62.4818 101.674 62.7759 101.964C60.5706 100.658 58.6595 99.6428 56.3072 100.513C51.3086 98.9176 45.1341 99.6428 40.5764 100.223C40.5764 99.498 40.7235 98.7728 40.4294 98.6277C40.1352 99.3529 39.2533 99.0627 39.4004 99.0627C36.6071 97.1772 33.8139 96.0167 30.8735 94.4215C28.2273 94.7117 25.7279 93.4061 24.9928 92.6809C22.9346 90.7954 20.5822 91.8105 18.6711 91.3755C14.5547 90.3601 13.0845 86.154 12.6433 83.2534C12.3491 81.803 11.1731 81.2229 10.7322 81.3677C8.82109 75.2761 5.88072 69.7646 3.52837 64.108C2.94036 62.6576 3.08744 61.2071 3.08744 59.6116C3.82253 59.9018 4.55763 59.7567 4.41054 58.7416C3.67545 53.9553 1.91143 50.3293 0 46.8483C1.02925 41.9169 1.17602 36.1152 3.52837 31.7639C5.58656 27.848 9.4091 25.8171 12.0553 22.4813C12.9375 21.3211 12.9375 19.7255 13.8196 18.7104C16.76 15.8096 19.7004 12.7636 22.9346 10.153C24.4048 8.99276 26.1688 10.153 28.3741 9.71797C29.1091 7.10733 32.0495 4.78659 34.8428 5.5118C36.0188 5.80201 38.3712 2.75606 39.1063 2.46585C40.2823 2.03084 39.6943 3.62606 39.6943 4.64149C42.4875 2.46585 46.3101 1.30563 49.8385 0Z" fill="#30352F"/>
<g clip-path="url(#clip0_377_399)">
<path d="M40.0112 70.6044H44.4068C44.862 70.6044 45.231 70.2354 45.231 69.7802C45.231 69.325 44.862 68.956 44.4068 68.956H40.8354V64.011H44.4068C44.862 64.011 45.231 63.642 45.231 63.1868C45.231 62.7316 44.862 62.3626 44.4068 62.3626H40.8354V57.4176H44.4068C44.862 57.4176 45.231 57.0486 45.231 56.5934C45.231 56.1382 44.862 55.7692 44.4068 55.7692H40.8354V50.8242H44.4068C44.862 50.8242 45.231 50.4552 45.231 50C45.231 49.5448 44.862 49.1758 44.4068 49.1758H40.8354V44.2308H44.4068C44.862 44.2308 45.231 43.8618 45.231 43.4066C45.231 42.9514 44.862 42.5824 44.4068 42.5824H40.8354V37.6374H44.4068C44.862 37.6374 45.231 37.2683 45.231 36.8132C45.231 36.358 44.862 35.989 44.4068 35.989H40.8354V31.044H44.4068C44.862 31.044 45.231 30.6749 45.231 30.2198C45.231 29.7646 44.862 29.3956 44.4068 29.3956H40.0112C39.556 29.3956 39.187 29.7646 39.187 30.2198V69.7802C39.187 70.2354 39.556 70.6044 40.0112 70.6044Z" fill="#B85954"/>
<path d="M69.6814 25H32.3188C32.0417 25 31.7832 25.1392 31.6307 25.3704C31.4782 25.6018 31.4522 25.8942 31.5613 26.1488L34.7913 33.6857V69.7802C34.7913 72.6584 37.1329 75 40.0111 75H65.2858C68.1639 75 70.5056 72.6584 70.5056 69.7802V25.8242C70.5056 25.369 70.1367 25 69.6814 25ZM68.8572 69.7802C68.8572 71.7495 67.2551 73.3517 65.2858 73.3517H40.0111C38.0418 73.3517 36.4396 71.7495 36.4396 69.7802V33.5165C36.4396 33.4048 36.417 33.2944 36.373 33.1918L33.5686 26.6484H68.8572V69.7802Z" fill="#B85954"/>
</g>
<defs>
<clipPath id="clip0_377_399">
<rect width="50" height="50" fill="white" transform="translate(26 25)"/>
</clipPath>
</defs>
</svg>
