<svg width="47" height="48" viewBox="0 0 47 48" fill="none" xmlns="http://www.w3.org/2000/svg">
<path d="M34.3077 20.7767C34.4521 19.8142 34.4048 18.8289 34.1657 17.8814C33.8499 16.6298 33.1994 15.4445 32.2144 14.4658C31.2294 13.487 30.0366 12.8407 28.777 12.5269C27.8236 12.2893 26.8319 12.2422 25.8633 12.3857" stroke="black" stroke-linecap="round" stroke-linejoin="round"/>
<path d="M29.9726 20.3209C30.1273 19.2899 29.8052 18.2018 29.0065 17.4081C28.2077 16.6145 27.1127 16.2944 26.0752 16.4481" stroke="black" stroke-linecap="round" stroke-linejoin="round"/>
<path d="M18.6554 14.0724C19.0704 14.0724 19.4528 14.296 19.6542 14.6566L21.0516 17.1577C21.2345 17.4852 21.2431 17.8813 21.0745 18.2164L19.7284 20.8916C19.7284 20.8916 20.1185 22.8846 21.7512 24.507C23.3838 26.1293 25.3828 26.5103 25.3828 26.5103L28.0747 25.1729C28.4121 25.0052 28.811 25.0139 29.1407 25.196L31.6649 26.5905C32.0274 26.7908 32.2522 27.1705 32.2522 27.5826V30.4622C32.2522 31.9286 30.8814 32.9877 29.4831 32.5189C26.6113 31.556 22.1534 29.7226 19.3279 26.9149C16.5023 24.1073 14.6573 19.6776 13.6882 16.8239C13.2164 15.4345 14.2823 14.0724 15.758 14.0724H18.6554Z" stroke="black" stroke-linejoin="round"/>
<path d="M3.07865 30.9193L3.6259 31.6019L3.35227 30.7145C3.28383 30.3049 2.80502 30.7827 3.07865 30.9193ZM3.69435 30.5097C3.89953 30.851 4.10486 31.1923 4.10486 31.5336C4.10486 32.0114 4.51538 32.2161 4.8573 32.3525C4.37834 31.8066 4.10472 30.3049 3.69435 30.5097ZM29.965 1.56996C31.128 1.56996 32.2226 1.43339 33.4542 1.70638C36.4644 2.45722 38.9956 3.95875 40.706 6.07469L45.495 13.7192C45.7002 15.6303 46.1107 17.7462 46.0422 20.0669C46.5212 20.0669 46.4527 19.3843 47 19.2478C46.4527 20.6129 46.179 22.3193 46.0422 24.2986C45.7002 23.2065 46.0422 21.5684 46.1107 20.6812C45.6317 21.432 45.3581 20.8859 45.3581 20.5446C45.4265 19.9986 45.1529 20.0667 44.9476 19.862C44.195 19.1795 43.7162 18.4286 43.1689 17.2684C43.511 16.3811 43.5794 15.0843 42.4848 14.4018C42.1427 14.197 41.7322 13.8558 41.527 13.3096C41.2534 12.5588 40.7744 11.6715 40.9112 10.5113C40.9796 10.17 39.8849 11.2621 39.2692 10.7843C36.6011 8.94147 33.933 6.82553 30.7176 5.05086C29.0072 5.05086 27.7758 4.43659 27.1601 3.68576C26.6129 3.0032 27.0232 2.11594 27.8443 2.04766C28.3232 2.04766 28.8705 1.91109 29.281 2.18423C29.3494 1.91124 29.6231 1.56996 29.965 1.56996ZM23.1922 0L23.329 0.0682846C24.0132 0.204854 24.3553 1.1604 25.1077 0.819122C25.1077 1.29697 25.1761 1.77467 25.0393 2.11594C24.8341 2.66193 24.2182 2.66193 23.7394 2.66193C19.1557 2.38894 16.4876 4.30003 13.6827 5.93812C12.9301 6.41597 12.1093 6.75725 11.4934 7.37152C8.55165 10.1017 5.33626 12.6271 4.58368 17.678L3.96798 23.2748C3.89953 23.8891 3.21539 24.5033 3.35227 25.2542L3.83109 28.5987C3.35213 28.1208 3.0785 28.7352 3.21539 29.0082C3.28383 29.2129 3.55746 29.8955 3.96798 29.2812C4.51523 30.305 5.06263 32.2844 5.81507 33.1717C8.14113 35.9019 11.1513 38.359 13.6143 40.8162C14.23 40.6796 14.7089 40.6796 14.8457 40.27C15.0509 40.6796 14.6405 41.0892 14.2984 41.1575C15.3931 41.84 16.6245 42.4543 18.2664 42.5907C20.3873 42.7273 22.3713 43.0685 24.2184 43.5464C25.1761 43.2734 26.1339 43.1368 27.1601 43.0685C27.5022 43.0685 27.7074 42.5226 28.1179 42.386L28.1863 41.7034C28.5969 42.3177 28.5284 41.4987 28.2548 41.0892C28.7337 41.4987 28.8705 41.84 29.0757 42.113C29.0757 41.9083 29.6229 41.1575 29.6231 42.0447L29.7598 41.1575C29.965 41.0209 30.0334 41.9083 30.2388 41.2939C30.444 40.6796 30.8545 41.1573 31.265 40.9526C31.1281 41.2256 31.1965 41.7717 31.6754 41.4304L32.2228 40.9526C32.5648 41.7717 33.1121 41.4304 33.3857 41.2939C36.3959 39.3828 39.4061 37.1304 42.2794 34.8781L42.211 35.7653L42.5531 34.6732C42.8951 35.0145 43.1688 34.7415 43.3057 34.5368C43.7162 33.8542 44.2634 33.1717 45.1529 32.5574C44.0582 35.4923 42.7584 37.813 41.1165 39.7241L40.4323 40.5432C40.4323 41.021 40.2955 41.6353 39.7482 41.7034C39.4746 41.7717 38.9272 41.5669 38.5168 41.9764C38.3116 42.2494 38.9958 42.7956 38.4484 42.386C37.9694 42.0447 37.4906 42.386 36.9432 42.5226C36.5327 42.6591 37.2168 43.0685 37.3537 43.3415C37.4906 43.6145 37.6273 43.8875 37.559 44.2289L36.8064 43.4098C35.9171 43.8877 35.3697 44.7749 34.6171 45.4575C34.275 45.7305 34.4119 46.2083 34.4119 46.6177C33.933 46.6177 33.3857 46.4812 33.1121 46.7543C32.9069 47.0273 32.9752 47.4369 32.9752 47.8464C32.2911 47.7781 32.2226 46.7543 31.6071 46.959C30.9914 47.0956 30.3072 47.1637 29.7598 47.5051C30.1703 48.3243 29.0757 47.8464 29.2126 47.9828C28.1863 47.3686 27.297 46.8907 26.2024 47.3003C23.8763 46.5494 21.003 46.8907 18.8821 47.1639C18.8821 46.8226 18.9505 46.4813 18.8137 46.413C18.6768 46.7543 18.2664 46.6177 18.3348 46.6177C17.035 45.7305 15.7352 45.1843 14.3669 44.4337C13.1355 44.5702 11.9724 43.9558 11.6303 43.6145C10.6725 42.7273 9.57787 43.205 8.68854 43.0003C6.77299 42.5224 6.08885 40.543 5.88352 39.1781C5.74663 38.4955 5.19937 38.2225 4.99419 38.2907C4.10486 35.424 2.73658 32.8304 1.64192 30.1685C1.36829 29.4859 1.43673 28.8034 1.43673 28.0525C1.7788 28.1891 2.12088 28.1208 2.05243 27.6431C1.71036 25.3907 0.889475 23.6844 0 22.0463C0.478959 19.7256 0.547256 16.9954 1.64192 14.9477C2.59969 13.1049 4.37849 12.1492 5.60989 10.5794C6.02041 10.0334 6.02041 9.28261 6.43092 8.80491C7.79921 7.4398 9.1675 6.00641 10.6725 4.77787C11.3567 4.23189 12.1776 4.77787 13.2038 4.57316C13.5458 3.34463 14.9141 2.25251 16.214 2.59379C16.7612 2.73036 17.8559 1.29697 18.198 1.1604C18.7452 0.955692 18.4716 1.70638 18.4716 2.18423C19.7714 1.1604 21.5502 0.614415 23.1922 0Z" fill="#30352F"/>
</svg>
